<?xml version="1.0" encoding="UTF-8"?>
<svg width="834px" height="668px" viewBox="0 0 834 668" version="1.1" xmlns="http://www.w3.org/2000/svg" xmlns:xlink="http://www.w3.org/1999/xlink">
    <!-- Generator: Sketch 52.3 (67297) - http://www.bohemiancoding.com/sketch -->
    <title>Group</title>
    <desc>Created with Sketch.</desc>
    <g id="Page-1" stroke="none" stroke-width="1" fill="none" fill-rule="evenodd">
        <g id="26824" transform="translate(-82.000000, -95.000000)">
            <g id="Group" transform="translate(82.000000, 95.000000)">
                <path d="M718.634,667.399 C713.471,667.399 708.281,667.203 703.031,666.724 C682.978,664.892 662.649,663.977 642.695,661.363 C596.899,655.364 551.083,655.009 504.954,655.009 C486.644,655.009 468.333,654.842 450.027,654.842 C423.359,654.842 396.703,655.196 370.088,656.939 C328.569,659.659 286.98,660.091 245.385,660.091 C239.119,660.091 232.852,660.082 226.587,660.068 C226.176,660.067 225.769,660.067 225.358,660.067 C202.338,660.067 179.407,661.455 156.421,662.436 C133.331,663.421 110.877,665.038 87.921,665.038 C85.846,665.038 83.766,665.025 81.682,664.997 C58.739,664.688 23.806,658.147 7.439,641.478 C-2.279,631.573 -0.961,607.744 8.771,598.194 C13.022,594.023 19.876,590.755 25.475,588.768 C41.424,583.104 57.653,583.091 74.319,582.974 C74.525,582.972 74.729,582.971 74.934,582.971 C86.433,582.971 98.39,585.24 109.409,588.391 C119.436,591.258 129.682,592.263 139.88,594.048 C148.226,595.508 157.155,596.207 165.986,596.207 C171.731,596.207 177.437,595.911 182.909,595.336 C197.716,593.779 212.629,593.056 227.48,591.828 C245.921,590.305 263.969,587.002 282.345,585.231 C291.545,584.346 300.532,582.147 309.711,581.148 C334.055,578.499 358.442,577.926 382.83,577.855 C384.827,577.849 386.823,577.846 388.82,577.846 C400.411,577.846 412.001,577.931 423.585,577.932 C433.025,577.932 442.459,577.904 451.894,577.904 C484.172,577.904 516.423,578.228 548.613,581.093 C558.589,581.98 568.5,581.443 578.337,583.556 C588.214,585.677 598.184,587.611 608.303,587.989 C616.958,588.313 625.64,588.419 634.331,588.419 C649.795,588.419 665.287,588.082 680.7,588.027 C682.245,588.022 684.397,588.013 687.065,588.013 C721.568,588.013 841.72,589.565 833.101,620.942 C829.788,633.001 810.53,648.694 799.728,653.746 C786.083,660.127 771.16,663.902 756.139,665.176 C743.479,666.248 731.135,667.399 718.634,667.399" id="Fill-4" fill="#F6EAEA"></path>
                <polyline id="Fill-5" fill="#E1CFB5" points="716.76 433.948 716.954 439.994 706.282 443.879 700.132 439.219 700.127 432.181 706.065 431.849 706.252 430.301 708.196 429.05 716.76 433.948"></polyline>
                <polyline id="Fill-6" fill="#353A85" points="498.479 481.716 500.772 534.899 494.051 625.33 483.992 626.044 471.771 543.912 454.866 474.413 498.479 481.716"></polyline>
                <polyline id="Fill-7" fill="#292949" points="484.53 632.796 499.63 632.796 500.255 627.81 494.842 624.07 483.965 624.843 484.53 632.796"></polyline>
                <polyline id="Fill-8" fill="#353A85" points="427.278 465.898 425.071 506.099 431.62 625.631 441.691 626.134 456.785 547.736 470.098 461.764 427.278 465.898"></polyline>
                <polyline id="Fill-9" fill="#292949" points="441.281 633.184 426.582 633.8 425.085 629.562 430.803 624.389 441.693 624.933 441.281 633.184"></polyline>
                <path d="M485.836,344.469 L454.409,341.102 C454.409,341.102 436.926,342.97 425.063,384.49 C418.463,407.59 416.454,443.983 415.971,471.729 C416.713,475.688 421.024,493.024 439.258,490.084 C470.569,485.033 487.235,479.983 500.871,482.508 C512.486,485.033 511.504,469.041 510.228,456.837 L505.599,419.076 L485.836,344.469" id="Fill-10" fill="#D67086"></path>
                <path d="M479.767,305.35 C471.846,303.604 463.692,302.04 455.763,303.609 C454.026,303.953 452.162,304.558 451.22,306.057 C450.855,306.638 450.662,307.308 450.483,307.97 C448.482,315.408 445.944,326.435 450.841,333.288 C451.774,334.595 453.029,335.633 454.377,336.475 C456.178,337.601 458.173,338.366 460.236,338.773 C459.81,340.623 459.215,342.434 458.462,344.176 C460.275,346.91 468.734,347.237 470.299,344.616 C470.386,342.348 470.474,340.08 470.562,337.812 C471.591,337.396 472.586,336.89 473.52,336.274 C477.135,333.894 479.518,330.28 480.9,326.238 C482.407,321.836 484.527,317.652 485.903,313.166 C486.405,311.531 486.801,309.666 485.94,308.188 C485.025,306.615 483.05,306.08 481.273,305.685 C480.771,305.573 480.27,305.461 479.767,305.35" id="Fill-11" fill="#C17E72"></path>
                <path d="M483.237,326.002 C487.043,322.094 491.497,316.629 491.841,311.667 C492.125,307.563 491.557,301.966 489.258,298.421 C487.106,295.104 481.604,293.282 478.332,291.36 C475.248,289.549 472.164,287.737 469.079,285.925 C468.438,285.548 467.778,285.165 467.046,285.038 C466.179,284.887 465.295,285.109 464.443,285.329 C457.153,287.213 449.864,289.097 442.574,290.981 C441.174,291.343 439.578,291.872 439.063,293.223 C438.749,294.045 438.934,294.963 439.121,295.823 C439.949,299.607 441.538,303.475 441.931,307.31 C442.536,310.336 442.42,313.045 444.632,315.257 C446.714,317.341 449.483,318.478 451.149,321.028 C452.352,322.869 452.814,325.086 453.756,327.073 C458.025,336.073 475.309,333.675 481.29,327.932 C481.9,327.346 482.559,326.698 483.237,326.002" id="Fill-12" fill="#353A85"></path>
                <polyline id="Fill-13" fill="#D67086" points="479.17 347.157 500.772 323.819 495.683 260.569 505.175 256.4 525.146 320.047 518.087 339.628 489.123 378.561 479.17 347.157"></polyline>
                <path d="M503.144,257.292 C503.144,257.292 503.144,251.595 503.144,251.504 C503.144,249.391 497.824,244.457 496.473,242.686 C495.7,241.674 492.158,247.185 492.115,248.096 C492.042,249.65 494.282,252.979 494.898,254.593 L493.008,257.292 L495.683,260.569 L503.144,257.292" id="Fill-14" fill="#C17E72"></path>
                <polyline id="Fill-15" fill="#D67086" points="440.524 352.015 416.074 331.68 412.907 268.304 402.954 265.403 391.417 331.104 400.958 349.603 434.733 384.444 440.524 352.015"></polyline>
                <path d="M405.085,266.024 C405.085,266.024 404.345,260.374 404.333,260.284 C404.059,258.188 408.691,252.605 409.803,250.674 C410.437,249.571 414.664,254.575 414.825,255.473 C415.1,257.005 413.31,260.596 412.91,262.276 L415.135,264.708 L412.907,268.304 L405.085,266.024" id="Fill-16" fill="#C17E72"></path>
                <path d="M56.644,312.574 C52.692,310.64 48.972,308.235 45.586,305.427 C44.486,304.514 43.312,303.226 43.699,301.849 C44.143,300.271 46.224,299.933 47.858,300.077 C50.937,300.347 53.96,301.248 56.685,302.707 C57.359,302.494 56.491,301.411 56.792,300.771 C56.929,300.478 57.289,300.366 57.612,300.348 C62.03,300.104 63.753,306.119 65.265,309.014 C62.172,310.637 58.971,310.698 56.225,313.159 L56.644,312.574" id="Fill-17" fill="#EFBFA5"></path>
                <path d="M246.231,384.155 C246.231,384.155 251.869,384.98 251.959,384.993 C254.05,385.3 263.185,380.693 265.133,379.612 C266.246,378.994 257.824,374.75 256.929,374.576 C255.401,374.278 251.783,376.013 250.097,376.388 L247.7,374.126 L244.07,376.299 L246.231,384.155" id="Fill-18" fill="#EFBFA5"></path>
                <polyline id="Fill-19" fill="#292949" points="105.904 620.048 105.108 626.243 116.702 634.031 123.693 628.632 118.295 621.641 106.701 613.852 105.904 620.048"></polyline>
                <polyline id="Fill-20" fill="#292949" points="105.512 617.968 114.454 538.956 103.696 450.503 106.115 431.688 154.166 429.862 155.9 460.487 147.833 539.078 117.485 622.006 105.512 617.968"></polyline>
                <polyline id="Fill-21" fill="#BABCBE" points="161.817 344.157 183.415 356.85 200.546 380.861 246.189 374.245 247.617 386.817 195.777 404.095 169.21 394.152 161.817 344.157"></polyline>
                <polyline id="Fill-22" fill="#292949" points="189.424 438.717 189.55 518.449 173.501 621.091 161.949 620.977 155.6 526.057 140.738 431.052 189.424 438.717"></polyline>
                <polyline id="Fill-23" fill="#292949" points="161.967 625.848 174.397 632.219 180.705 626.035 174.521 619.727 162.03 619.602 161.967 625.848"></polyline>
                <path d="M98.723,465.834 C98.833,462.379 99.025,459.495 99.053,458.466 C99.3,449.197 100.126,439.949 101.287,430.746 C102.326,422.499 103.639,402.026 105.05,393.83 C106.215,387.063 110.276,370.172 113.21,363.895 C120.506,348.285 118.252,346.843 150.302,342.208 C164.349,340.177 167.668,348.931 179.152,358.997 C180.285,359.99 180.222,365.901 180.485,367.467 C180.948,370.224 181.444,372.976 182.012,375.715 C182.459,377.868 182.952,380.015 183.505,382.146 L183.504,382.146 C183.504,382.146 193.145,426.018 199.52,435.335 C205.895,444.652 219.066,457.679 197.034,465.633 C193.129,466.895 189.201,468.096 185.137,468.738 C185.137,468.738 167.118,466.735 157.852,466.805 C149.317,466.868 140.748,467.732 132.358,469.179 C126.747,470.116 121.022,471.479 116.003,474.101 C111.215,476.602 107.759,480.281 102.901,482.871 C102.44,483.116 101.936,483.37 101.413,483.298 C98.622,482.911 98.491,473.106 98.723,465.834" id="Fill-24" fill="#BABCBE"></path>
                <path d="M147.425,346.249 C146.114,347.487 142.55,348.882 138.286,348.561 C137.426,348.496 136.682,347.915 136.439,347.089 C135.759,344.768 135.235,342.4 134.873,340.01 C131.71,339.883 127.949,339.392 126.534,336.56 C126.088,335.668 125.956,334.657 125.83,333.668 C125.308,329.579 124.785,325.49 124.263,321.402 C124.083,319.988 123.905,318.529 124.282,317.155 C124.943,314.742 127.158,313.095 129.389,311.962 C135.08,309.071 142.032,308.36 147.903,310.865 C149.466,311.532 150.975,312.447 151.991,313.809 C153.559,315.907 153.728,318.701 153.836,321.318 C153.936,323.734 154.036,326.15 154.136,328.566 C154.25,331.345 154.174,334.567 151.993,336.293 C150.835,337.209 149.236,337.536 148.278,338.66 C146.588,340.641 147.831,343.677 147.425,346.249" id="Fill-25" fill="#EFBFA5"></path>
                <path d="M170.227,296.867 C170.519,295.716 170.868,294.585 171.31,293.489 C172.268,291.114 173.667,288.901 174.259,286.411 C174.851,283.92 174.409,280.926 172.324,279.44 C170.978,278.482 169.226,278.334 167.574,278.354 C162.13,278.419 156.711,279.975 152.063,282.809 C147.634,285.507 143.958,288.854 138.567,288.533 C133.502,288.233 130.433,289.932 126.205,293.086 C121.629,296.498 114.864,299.05 111.008,303.068 C109.397,304.746 108.366,306.911 107.732,309.148 C105.533,316.899 108.249,325.82 114.394,331.031 C115.772,332.2 117.295,333.188 118.857,334.098 C122.089,335.982 125.987,338.338 129.622,338.288 C128.784,335.28 123.176,326.708 124.716,323.559 C127.16,318.562 135.796,317.389 140.601,316.958 C145.841,316.488 151.297,318.625 156.404,317.87 C160.078,317.328 164.029,314.229 166.457,311.498 C169.451,308.126 169.159,301.068 170.227,296.867" id="Fill-26" fill="#292949"></path>
                <polyline id="Fill-27" fill="#BABCBE" points="122.27 349.076 97.055 355.552 66.69 308.353 53.875 311.813 75.238 379.758 124.396 385.676 122.27 349.076"></polyline>
                <path d="M735.887,610.92 C736.994,609.7 738.288,609.034 739.748,609.264 C741.151,609.484 742.414,610.436 742.992,611.708 C743.387,612.575 743.471,613.543 743.549,614.489 C743.953,619.387 743.917,631.015 737.394,632.688 C734.651,633.392 732.384,631.443 731.651,628.982 C730.549,625.272 732.182,614.998 735.887,610.92" id="Fill-28" fill="#292949"></path>
                <path d="M733.566,537.037 L733.907,566.909 C733.511,580.178 735.582,593.521 735.186,606.79 C735.094,609.841 734.299,613.06 735.067,616.084 C735.819,619.042 738.223,619.565 740.69,618.067 C743.996,616.061 743.464,611.373 744.014,607.954 C745.526,598.558 747.301,589.205 748.88,579.82 C749.655,575.22 748.059,568.771 748.406,564.115 L753.231,539.08 L733.566,537.037" id="Fill-29" fill="#F4C7B3"></path>
                <polyline id="Fill-30" fill="#292949" points="767.697 488.771 754.695 546.523 751.934 601.063 731.318 600.6 725.713 448.045 765.677 448.771 767.697 488.771"></polyline>
                <path d="M706.399,609.834 C707.556,608.679 708.873,608.089 710.319,608.405 C711.709,608.709 712.926,609.734 713.448,611.042 C713.805,611.934 713.847,612.907 713.884,613.858 C714.077,618.784 713.544,630.418 706.971,631.709 C704.208,632.251 702.03,630.168 701.406,627.661 C700.466,623.884 702.532,613.698 706.399,609.834" id="Fill-31" fill="#292949"></path>
                <path d="M717.266,541.23 L715.517,571.055 C715.373,579.343 714.269,587.566 713.411,595.799 C712.614,603.445 713.854,611.41 709.857,618.364 C708.604,620.546 706.071,621.997 704.302,619.348 C702.938,617.306 703.748,613.899 703.486,611.583 C702.418,602.127 701.087,592.702 699.951,583.254 C699.395,578.622 701.293,572.256 701.166,567.588 L697.525,542.356 L717.266,541.23" id="Fill-32" fill="#F4C7B3"></path>
                <polyline id="Fill-33" fill="#292949" points="691.178 485.238 689.5 541.301 698.298 597.992 719.268 598.62 718.342 537.265 729.438 486.384 733.164 453.078 699.89 449.153 691.178 485.238"></polyline>
                <polyline id="Fill-34" fill="#8CABEF" points="717.5 334.421 753.348 333.564 774.132 372.22 766.744 408.425 765.429 451.753 714.294 452.451 697.468 449.719 701.936 403.424 699.374 341.582 717.5 334.421"></polyline>
                <path d="M722.198,300.968 C729.256,285.926 749.247,294.003 751.999,308.371 C753.794,317.743 745.518,328.762 735.835,330.354 C735.756,330.707 734.721,333.758 734.689,334.04 C734.525,335.496 734.191,336.913 733.818,338.345 C733.68,338.879 725.622,336.411 724.725,336.131 C724.41,336.033 724.062,335.907 723.918,335.62 C723.642,335.067 725.313,330.884 725.435,330.316 C725.579,329.646 725.724,328.977 725.867,328.307 C721.474,325.543 719.067,320.406 718.779,315.41 C718.49,310.391 720.078,305.489 722.198,300.968" id="Fill-35" fill="#F4C7B3"></path>
                <path d="M737.174,288.303 C738.159,289.545 738.425,291.158 738.582,292.696 C738.676,293.614 738.739,294.561 738.451,295.429 C737.303,298.893 733.806,298.329 730.962,299.178 C727.456,300.226 724.284,302.509 722.083,305.295 C718.638,309.659 719.312,315.823 719.948,321.114 C720.172,322.979 720.727,325.774 719.141,327.245 C717.529,328.739 714.243,328.127 712.617,327.094 C711.132,326.149 709.998,324.577 708.307,324.103 C706.516,323.601 703.965,324.137 703.297,322.372 C703.111,321.882 703.15,321.311 702.898,320.852 C702.046,319.303 699.358,320.72 698.048,319.551 C697.242,318.832 697.392,317.502 697.801,316.48 C698.21,315.459 698.822,314.444 698.731,313.351 C698.654,312.411 698.068,311.611 697.748,310.729 C697.115,308.986 697.628,306.861 698.986,305.594 C701.512,303.238 705.804,304.2 708.473,302.015 C709.863,300.876 710.547,299.092 711.202,297.405 C711.856,295.717 712.614,293.945 714.081,292.912 C715.894,291.635 718.256,292.14 720.075,290.591 C721.144,289.68 721.926,288.429 723.098,287.663 C724.643,286.653 727.513,286.058 729.342,285.655 C732.244,285.016 735.311,285.953 737.174,288.303" id="Fill-36" fill="#292949"></path>
                <path d="M747.531,314.638 C747.073,319.79 743.92,325.072 745.801,329.854 C747.698,334.679 753.568,336.145 758.62,336.931 C759.451,337.06 770.069,339.141 770.137,338.942 C771.325,335.447 772.549,331.885 774.76,328.941 C776.97,325.998 780.381,323.73 783.989,323.894 C782.974,323.603 782.589,322.28 782.824,321.226 C783.059,320.171 783.715,319.269 784.145,318.277 C785.202,315.842 784.755,312.819 783.045,310.844 C779.635,306.901 772.604,307.628 769.791,303.219 C768.047,300.485 768.681,296.861 767.955,293.675 C766.554,287.514 760.184,285.569 755.611,282.362 C750.785,278.977 746.12,276.904 740.091,277.252 C732.616,277.685 726.353,284.572 728.426,291.912 C731.085,301.326 745.689,302.112 747.421,311.566 C747.607,312.582 747.623,313.607 747.531,314.638" id="Fill-37" fill="#292949"></path>
                <polyline id="Fill-38" fill="#F9F9F9" points="742.743 334.215 731.622 349.933 726.395 349.505 717.681 333.564 742.743 334.215"></polyline>
                <path d="M717.681,333.564 L697.468,334.663 C697.468,334.663 674.78,345.819 673.279,344.981 C671.778,344.145 647.263,295.061 647.263,295.061 L635.255,298.959 L650.265,355.107 L664.773,370.109 L705.801,363.281 L717.681,333.564" id="Fill-39" fill="#8CABEF"></path>
                <path d="M637.134,298.271 L633.91,293.462 C632.732,291.708 634.401,284.647 634.539,282.423 C634.617,281.153 640.627,283.757 641.17,284.49 C642.097,285.74 642.09,289.752 642.478,291.436 L645.552,292.625 L645.155,296.837 L637.134,298.271" id="Fill-40" fill="#F4C7B3"></path>
                <polyline id="Fill-41" fill="#373F8C" points="212.575 152.896 149.409 124.356 149.409 48.387 212.575 76.927 212.575 152.896"></polyline>
                <polyline id="Fill-42" fill="#333A7F" points="212.575 152.896 275.74 124.356 275.74 48.387 212.575 76.927 212.575 152.896"></polyline>
                <polyline id="Fill-43" fill="#3F4991" points="149.409 48.387 212.575 76.927 275.74 48.387 212.575 22.475 149.409 48.387"></polyline>
                <polyline id="Fill-44" fill="#5D66D3" points="716.988 110.496 663.912 86.515 663.912 22.68 716.988 46.662 716.988 110.496"></polyline>
                <polyline id="Fill-45" fill="#474EBB" points="716.988 110.496 770.064 86.515 770.064 22.68 716.988 46.662 716.988 110.496"></polyline>
                <polyline id="Fill-46" fill="#717DDB" points="663.912 22.68 716.988 46.662 770.064 22.68 716.988 0.907 663.912 22.68"></polyline>
                <path d="M252.196,106.029 L243.501,102.091 L244.813,99.192 L253.509,103.13 L252.196,106.029 Z M266.689,112.592 L257.993,108.654 L259.306,105.756 L268.001,109.694 L266.689,112.592 Z M281.182,119.156 L272.486,115.218 L273.799,112.319 L282.494,116.257 L281.182,119.156 Z M295.674,125.719 L286.979,121.781 L288.291,118.883 L296.987,122.821 L295.674,125.719 Z M310.167,132.283 L301.471,128.345 L302.784,125.446 L311.479,129.384 L310.167,132.283 Z M324.659,138.846 L315.964,134.908 L317.276,132.01 L325.972,135.948 L324.659,138.846 Z M339.152,145.41 L330.457,141.472 L331.769,138.573 L340.465,142.511 L339.152,145.41 Z M353.645,151.973 L344.949,148.035 L346.262,145.137 L354.958,149.075 L353.645,151.973 Z M368.137,158.537 L359.441,154.599 L360.754,151.7 L369.45,155.638 L368.137,158.537 Z M382.63,165.1 L373.934,161.162 L375.247,158.264 L383.942,162.202 L382.63,165.1 Z M395.869,171.096 L388.427,167.726 L389.739,164.827 L397.182,168.198 L395.869,171.096 Z" id="Fill-47" fill="#D67086"></path>
                <path d="M170.343,107.812 L168.449,105.255 L176.118,99.571 L178.013,102.128 L170.343,107.812 Z M157.562,117.284 L155.667,114.728 L163.336,109.044 L165.23,111.601 L157.562,117.284 Z M144.779,126.757 L142.885,124.201 L150.554,118.517 L152.448,121.073 L144.779,126.757 Z M131.997,136.229 L130.103,133.673 L137.772,127.99 L139.667,130.546 L131.997,136.229 Z M119.215,145.703 L117.32,143.146 L124.99,137.462 L126.884,140.019 L119.215,145.703 Z M106.433,155.175 L104.539,152.619 L112.208,146.935 L114.103,149.492 L106.433,155.175 Z M93.651,164.648 L91.756,162.092 L99.425,156.408 L101.32,158.964 L93.651,164.648 Z M84.607,171.35 L82.713,168.793 L86.644,165.88 L88.538,168.437 L84.607,171.35 Z" id="Fill-48" fill="#D67086"></path>
                <polyline id="Fill-49" fill="#5D66D3" points="62.302 264.936 9.226 240.954 9.226 177.12 62.302 201.101 62.302 264.936"></polyline>
                <polyline id="Fill-50" fill="#474EBB" points="62.302 264.936 115.378 240.954 115.378 177.12 62.302 201.101 62.302 264.936"></polyline>
                <polyline id="Fill-51" fill="#717DDB" points="9.226 177.12 62.302 201.101 115.378 177.12 62.302 155.346 9.226 177.12"></polyline>
                <path d="M680.46,71.926 L679.285,68.969 L688.156,65.445 L689.331,68.402 L680.46,71.926 Z M665.675,77.801 L664.5,74.844 L673.371,71.319 L674.546,74.276 L665.675,77.801 Z M650.889,83.675 L649.715,80.718 L658.586,77.193 L659.761,80.151 L650.889,83.675 Z M636.104,89.55 L634.929,86.593 L643.8,83.068 L644.975,86.025 L636.104,89.55 Z M621.318,95.424 L620.144,92.467 L629.015,88.942 L630.189,91.899 L621.318,95.424 Z M606.533,101.298 L605.358,98.341 L614.229,94.817 L615.404,97.774 L606.533,101.298 Z M591.748,107.173 L590.573,104.216 L599.444,100.691 L600.619,103.648 L591.748,107.173 Z M576.963,113.047 L575.788,110.09 L584.659,106.565 L585.834,109.522 L576.963,113.047 Z M562.177,118.922 L561.002,115.965 L569.874,112.44 L571.049,115.397 L562.177,118.922 Z M547.392,124.796 L546.217,121.839 L555.088,118.314 L556.263,121.271 L547.392,124.796 Z M532.606,130.67 L531.432,127.713 L540.303,124.189 L541.478,127.146 L532.606,130.67 Z M517.821,136.545 L516.646,133.588 L525.518,130.063 L526.692,133.02 L517.821,136.545 Z M503.036,142.419 L501.861,139.462 L510.732,135.938 L511.907,138.895 L503.036,142.419 Z M488.251,148.293 L487.076,145.336 L495.947,141.812 L497.122,144.769 L488.251,148.293 Z M473.465,154.168 L472.29,151.211 L481.162,147.687 L482.336,150.644 L473.465,154.168 Z M458.68,160.042 L457.505,157.085 L466.376,153.561 L467.551,156.518 L458.68,160.042 Z M443.895,165.917 L442.72,162.96 L451.591,159.435 L452.766,162.392 L443.895,165.917 Z M429.109,171.792 L427.935,168.834 L436.806,165.31 L437.98,168.267 L429.109,171.792 Z M414.324,177.666 L413.149,174.708 L422.021,171.184 L423.195,174.141 L414.324,177.666 Z M399.539,183.54 L398.364,180.583 L407.235,177.059 L408.41,180.016 L399.539,183.54 Z M393.355,185.997 L392.181,183.04 L392.45,182.933 L393.625,185.89 L393.355,185.997 Z" id="Fill-52" fill="#D67086"></path>
                <polyline id="Fill-53" fill="#5D66D3" points="446.573 273.541 338.963 224.919 338.963 95.496 446.573 144.118 446.573 273.541"></polyline>
                <polyline id="Fill-54" fill="#474EBB" points="446.573 273.541 554.184 224.919 554.184 95.496 446.573 144.118 446.573 273.541"></polyline>
                <polyline id="Fill-55" fill="#717DDB" points="338.963 95.496 446.573 144.118 554.184 95.496 446.573 51.351 338.963 95.496"></polyline>
                <path d="M508.44,189.872 L499.728,185.97 L501.028,183.066 L509.74,186.967 L508.44,189.872 Z M522.96,196.373 L514.248,192.472 L515.549,189.568 L524.261,193.469 L522.96,196.373 Z M537.481,202.875 L528.769,198.974 L530.069,196.07 L538.781,199.971 L537.481,202.875 Z M552.001,209.376 L543.289,205.476 L544.59,202.571 L553.302,206.472 L552.001,209.376 Z M566.521,215.878 L557.81,211.977 L559.11,209.073 L567.822,212.974 L566.521,215.878 Z M581.042,222.38 L572.33,218.479 L573.63,215.575 L582.343,219.476 L581.042,222.38 Z M595.563,228.881 L586.851,224.98 L588.15,222.076 L596.863,225.978 L595.563,228.881 Z M610.083,235.383 L601.371,231.482 L602.671,228.578 L611.384,232.479 L610.083,235.383 Z M624.604,241.885 L615.892,237.984 L617.191,235.08 L625.903,238.981 L624.604,241.885 Z" id="Fill-56" fill="#D67086"></path>
                <path d="M385.625,191.047 L383.893,188.377 L391.902,183.184 L393.634,185.853 L385.625,191.047 Z M372.276,199.703 L370.545,197.033 L378.554,191.84 L380.285,194.509 L372.276,199.703 Z M358.927,208.359 L357.196,205.69 L365.205,200.496 L366.937,203.166 L358.927,208.359 Z M345.579,217.016 L343.848,214.346 L351.857,209.152 L353.588,211.822 L345.579,217.016 Z M332.23,225.672 L330.499,223.002 L338.508,217.809 L340.239,220.479 L332.23,225.672 Z M318.882,234.329 L317.15,231.659 L325.16,226.465 L326.891,229.135 L318.882,234.329 Z M305.533,242.985 L303.802,240.315 L311.812,235.121 L313.542,237.791 L305.533,242.985 Z" id="Fill-57" fill="#D67086"></path>
                <polyline id="Fill-58" fill="#5D66D3" points="268.737 379.567 195.144 346.315 195.144 257.805 268.737 291.057 268.737 379.567"></polyline>
                <polyline id="Fill-59" fill="#474EBB" points="268.737 379.567 342.331 346.315 342.331 257.805 268.737 291.057 268.737 379.567"></polyline>
                <polyline id="Fill-60" fill="#717DDB" points="195.144 257.805 268.737 291.057 342.331 257.805 268.737 227.614 195.144 257.805"></polyline>
                <polyline id="Fill-61" fill="#373F8C" points="665.731 302.962 592.139 269.711 592.139 181.2 665.731 214.452 665.731 302.962"></polyline>
                <polyline id="Fill-62" fill="#333A7F" points="665.731 302.962 739.325 269.711 739.325 181.2 665.731 214.452 665.731 302.962"></polyline>
                <polyline id="Fill-63" fill="#3F4991" points="592.139 181.2 665.731 214.452 739.325 181.2 665.731 151.009 592.139 181.2"></polyline>
                <path d="M731.231,437.766 C729.056,439.975 726.055,441.887 722.977,441.495 C721.749,441.338 720.528,441.122 719.321,440.849 C718.37,440.633 717.396,440.365 716.64,439.738 C715.883,439.111 715.398,438.033 715.721,437.082 C716.175,435.739 717.805,435.379 718.995,434.656 C720.483,433.754 721.393,432.132 722.562,430.819 C725.227,427.827 728.823,427.546 732.222,425.95 C732.378,425.877 734.217,428 734.386,428.19 C735.617,429.572 735.729,429.873 735.032,431.622 C734.172,433.78 732.917,436.054 731.231,437.766" id="Fill-64" fill="#F4C7B3"></path>
                <polyline id="Fill-65" fill="#8CABEF" points="754.536 336.23 783.636 380.553 779.263 405.244 734.194 436.465 725.713 429.05 755.844 390.962 754.675 366.892 754.536 336.23"></polyline>
            </g>
        </g>
    </g>
</svg>