<?xml version="1.0" encoding="UTF-8"?>
<svg width="968px" height="660px" viewBox="0 0 968 660" version="1.1" xmlns="http://www.w3.org/2000/svg" xmlns:xlink="http://www.w3.org/1999/xlink">
    <!-- Generator: Sketch 52.3 (67297) - http://www.bohemiancoding.com/sketch -->
    <title>Group</title>
    <desc>Created with Sketch.</desc>
    <g id="Page-1" stroke="none" stroke-width="1" fill="none" fill-rule="evenodd">
        <g id="64644" transform="translate(-75.000000, -90.000000)">
            <g id="Group" transform="translate(75.000000, 90.000000)">
                <path d="M835.162,659.903 C829.194,659.903 823.194,659.671 817.126,659.105 C793.943,656.941 770.443,655.86 747.376,652.772 C694.435,645.685 641.47,645.266 588.143,645.266 C566.97,645.266 545.797,645.068 524.628,645.068 C493.806,645.068 462.996,645.487 432.234,647.546 C384.25,650.757 336.188,651.269 288.117,651.269 C280.86,651.269 273.599,651.258 266.342,651.242 C265.875,651.241 265.413,651.24 264.947,651.24 C238.327,651.24 211.809,652.88 185.23,654.039 C158.531,655.203 132.571,657.114 106.027,657.114 C103.634,657.114 101.232,657.098 98.828,657.065 C72.306,656.7 31.922,648.973 13.001,629.28 C1.767,617.579 3.29,589.429 14.541,578.147 C19.456,573.219 27.379,569.359 33.85,567.01 C41.469,564.246 49.145,562.621 56.887,561.656 L54.428,580.104 L71.063,584.458 L79.312,560.279 C82.963,560.214 86.63,560.192 90.316,560.165 C90.553,560.164 90.788,560.163 91.025,560.163 C104.318,560.163 118.141,562.843 130.882,566.565 C132.511,567.041 134.147,567.474 135.785,567.872 L139.622,589.649 L155.268,588.117 L156.053,571.602 C159.404,572.124 162.758,572.649 166.107,573.248 C175.756,574.974 186.077,575.8 196.285,575.8 C202.927,575.8 209.523,575.45 215.849,574.77 C232.967,572.931 250.207,572.076 267.375,570.627 C288.693,568.827 309.557,564.925 330.801,562.833 C341.437,561.786 351.824,559.19 362.435,558.01 C390.578,554.88 418.771,554.202 446.964,554.118 C449.25,554.111 451.535,554.108 453.821,554.108 C467.242,554.108 480.664,554.209 494.078,554.209 C504.991,554.209 515.897,554.176 526.804,554.176 C564.118,554.176 601.401,554.559 638.614,557.944 C650.147,558.992 661.605,558.358 672.977,560.853 C684.394,563.359 695.919,565.645 707.617,566.091 C717.625,566.473 727.66,566.599 737.709,566.599 C755.585,566.599 773.495,566.201 791.31,566.136 C793.096,566.13 795.581,566.119 798.666,566.119 C838.553,566.119 977.45,567.953 967.49,605.021 C963.66,619.265 941.4,637.805 928.91,643.773 C913.136,651.312 895.885,655.772 878.52,657.276 C863.884,658.543 849.614,659.903 835.162,659.903" id="Fill-3" fill="#F6EAEA"></path>
                <path d="M256.884,97.123 C257.146,123.311 211.338,192.874 211.338,192.874 C211.338,192.874 164.149,124.24 163.888,98.052 C163.626,71.865 184.231,50.427 209.912,50.17 C235.592,49.914 256.622,70.935 256.884,97.123" id="Fill-4" fill="#D67086"></path>
                <path d="M232.222,95.279 C232.345,107.589 222.659,117.666 210.588,117.787 C198.517,117.907 188.631,108.026 188.508,95.716 C188.386,83.406 198.071,73.33 210.142,73.209 C222.213,73.088 232.099,82.97 232.222,95.279" id="Fill-5" fill="#FFFFFF"></path>
                <path d="M171.898,102.137 C171.671,79.388 189.571,60.765 211.879,60.542 C224.919,60.412 236.576,66.599 244.059,76.304 C236.961,64.026 223.805,55.843 208.827,55.993 C186.519,56.216 168.619,74.838 168.846,97.587 C168.94,107.04 172.151,115.715 177.471,122.614 C173.996,116.604 171.973,109.613 171.898,102.137" id="Fill-6" fill="#FFFFFF"></path>
                <path d="M200.191,174.848 C206.635,185.61 211.338,192.874 211.338,192.874 C211.338,192.874 257.146,123.311 256.884,97.123 C256.87,95.748 256.786,94.391 256.66,93.047 C254.897,100.341 252.374,107.45 249.258,114.242 C240.644,133.013 227.747,145.114 214.035,160.409 C209.615,165.34 205.012,170.218 200.191,174.848" id="Fill-7" fill="#CC5E7B"></path>
                <path d="M582.949,92.353 C583.227,92.586 583.512,92.829 583.705,93.122 C585.505,95.849 584.812,98.349 585.793,101.455 C586.23,102.84 589.834,103.828 587.902,106.168 C587.19,107.031 585.144,108.903 583.607,110.729 C581.366,113.393 580.135,118.124 579.851,122.06 C578.735,137.526 581.859,152.868 585.427,167.946 C585.63,168.806 585.855,169.7 586.432,170.369 C587.464,171.567 589.247,171.675 590.828,171.725 C598.159,171.956 605.469,172.87 612.631,174.451 C619.021,175.862 625.454,177.884 630.611,181.911 C635.77,185.939 639.476,192.318 638.836,198.831 C638.356,203.708 635.371,208.272 631.095,210.665 C620.488,216.6 606.489,205.678 597.217,200.931 C588.443,196.439 579.985,191.334 571.926,185.66 C570.931,184.959 569.915,184.223 569.275,183.188 C568.594,182.084 568.408,180.755 568.241,179.469 C566.087,162.908 565.408,146.251 565.063,129.493 C564.968,124.889 567.306,120.819 567.18,116.562 C567.099,113.845 565.082,111.771 564.438,109.225 C563.802,106.705 563.608,103.235 563.946,100.661 C564.612,95.584 569.245,93.033 573.074,90.406 C574.027,89.752 574.669,89.307 575.746,89.183 C577.496,88.981 578.965,89.856 580.454,90.672 C581.336,91.155 582.183,91.711 582.949,92.353" id="Fill-8" fill="#E2B596"></path>
                <path d="M601.846,200.063 C603.442,190.365 605.038,180.668 606.634,170.97 C606.531,171.593 651.079,175.52 653.724,175.845 C663.813,177.083 674.261,178.443 682.911,183.783 C701.382,195.186 696.757,223.386 674.515,226.479 C650.367,229.837 622.909,224.257 601.696,212.365 C601.235,212.107 600.756,211.826 600.484,211.373 C600.111,210.75 600.217,209.965 600.334,209.249 C600.838,206.187 601.342,203.125 601.846,200.063" id="Fill-9" fill="#292949"></path>
                <path d="M610.165,586.306 C607.202,585.973 604.466,584.895 601.609,584.203 C604.327,555.274 611.455,525.583 616.865,496.91 C624.183,498.385 631.5,499.861 638.817,501.337 C631.42,516 625.419,531.367 620.911,547.159 C620.197,549.662 610.588,586.353 610.165,586.306" id="Fill-10" fill="#E2B596"></path>
                <path d="M601.533,578.503 C599.761,577.912 598.568,578.564 597.191,579.495 C596.392,580.036 595.779,580.877 594.861,581.213 C593.943,581.55 593.096,581.517 592.071,581.47 C586.672,581.225 574.446,579.204 579.671,589.061 C584.416,598.012 600.638,597.106 610.058,596.246 C610.677,596.189 611.322,596.192 611.828,595.793 C612.335,595.395 612.728,594.778 613.015,594.122 C614.61,590.472 616.727,585.933 612.285,583.653 C610.391,582.681 608.36,583.732 606.356,582.69 C604.715,581.837 603.307,579.094 601.533,578.503" id="Fill-11" fill="#292949"></path>
                <path d="M601.39,518.734 C616.473,520.649 631.557,522.565 646.64,524.48 C667.306,468.345 698.828,422.576 704.391,354.592 C704.768,349.97 707.162,345.554 706.502,340.963 C705.253,332.281 697.039,326.226 688.741,323.38 C675.847,318.958 650.982,318.833 642.161,331.62 C632.838,345.133 630.227,371.327 626.122,387.169 C614.921,430.399 606.647,474.387 601.39,518.734" id="Fill-12" fill="#474EBB"></path>
                <path d="M732.891,590.141 C729.972,590.751 727.035,590.583 724.105,590.819 C717.641,562.491 715.126,532.06 711.297,503.134 C718.709,502.247 726.121,501.36 733.533,500.473 C731.092,516.714 730.198,533.187 730.855,549.597 C730.959,552.198 733.307,590.054 732.891,590.141" id="Fill-13" fill="#E2B596"></path>
                <path d="M722.251,585.429 C720.383,585.421 719.454,586.415 718.438,587.729 C717.847,588.492 717.527,589.483 716.762,590.09 C715.995,590.696 715.18,590.93 714.191,591.207 C708.986,592.661 696.742,594.565 704.787,602.294 C712.093,609.312 727.218,603.379 735.896,599.616 C736.467,599.368 737.081,599.169 737.438,598.632 C737.794,598.095 737.974,597.387 738.041,596.674 C738.416,592.708 739.006,587.734 734.074,586.958 C731.971,586.627 730.37,588.26 728.142,587.898 C726.315,587.601 724.12,585.436 722.251,585.429" id="Fill-14" fill="#292949"></path>
                <path d="M697.832,523.242 C712.758,520.344 727.683,517.446 742.609,514.548 C744.684,454.766 745.259,394.932 744.335,335.122 C744.263,330.484 744.141,325.67 742.078,321.516 C738.176,313.66 728.48,310.478 719.709,310.369 C706.079,310.201 682.422,317.859 678.042,332.762 C673.413,348.513 679.124,374.211 680.18,390.542 C683.059,435.106 688.958,479.475 697.832,523.242" id="Fill-15" fill="#474EBB"></path>
                <path d="M717.195,197.874 C729.382,209.473 738.512,224.373 744.01,239.807 C753.747,267.139 753.935,296.321 754.024,324.918 C754.054,334.435 754.083,343.953 754.113,353.471 C754.144,362.834 753.314,364.85 743.138,363.615 C724.28,361.328 704.676,357.44 687.588,349.06 C679.457,345.072 671.858,340.035 663.333,336.895 C650.932,332.328 638.219,334.395 625.95,331.424 C629.061,322.017 633.715,313.426 635.879,303.557 C638.045,293.678 639.067,283.581 639.749,273.494 C640.941,255.864 643.135,238.339 644.456,220.775 C645.403,208.196 643.746,197.893 657.127,189.642 C664.41,185.15 677.661,177.463 687.939,179.542 C698.845,181.748 710.383,191.39 717.195,197.874" id="Fill-16" fill="#292949"></path>
                <path d="M673.221,157.778 C675.522,162.809 679.283,167.002 682.354,171.604 C685.342,176.081 686.416,180.132 687.209,185.323 C687.781,189.073 689.121,192.003 693.638,192.645 C702.155,193.856 699.72,186.818 701.654,181.698 C703.866,175.846 708.582,171.221 711.878,165.998 C721.402,150.904 718.684,121.07 698.889,114.704 C677.245,107.743 666.235,142.511 673.221,157.778" id="Fill-17" fill="#E2B596"></path>
                <path d="M707.722,143.172 C710.18,143.271 712.882,143.466 714.704,145.116 C716.526,146.767 716.329,150.366 713.923,150.755 C711.742,151.107 708.918,148.832 707.586,150.493 C706.808,151.464 707.491,152.884 708.082,154.02 C710.35,158.376 711.028,163.428 709.97,168.069 C710.867,168.901 712.267,168.038 713.055,167.172 C716.969,162.874 720.025,157.853 722.027,152.437 C722.813,153.747 723.967,154.863 725.326,155.629 C724.511,153.593 725.026,151.365 725.53,149.287 C727.379,141.652 728.639,132.706 723.306,126.467 C720.453,123.129 716.115,121.208 711.752,120.401 C707.39,119.594 702.942,119.79 698.546,119.989 C696.664,120.074 694.347,120.479 693.895,122.22 C698.021,123.874 702.289,127.096 704.354,131.003 C704.989,132.203 707.472,143.162 707.722,143.172" id="Fill-18" fill="#15273D"></path>
                <path d="M699.003,124.827 C699.153,124.936 699.301,125.046 699.446,125.156 C701.316,126.58 703.069,128.311 705.333,128.942 C708.595,129.852 712.1,128.28 715.312,129.391 C718.901,130.633 721.261,134.926 723.882,137.467 C728.179,141.633 733.507,144.697 739.227,146.437 C742.147,147.326 745.174,147.872 748.223,148.045 C749.605,148.123 751.454,148.385 752.802,148.022 C754.61,147.535 754.549,146.713 752.622,146.095 C746.579,144.159 744.685,135.672 745.141,130.045 C745.502,125.605 747.033,120.963 745.34,116.842 C744.046,113.694 741.268,112.069 738.582,110.268 C735.619,108.281 732.408,108.816 729.045,107.861 C725.536,106.865 722.678,104.102 719.099,103.397 C715.318,102.653 711.541,104.328 707.76,105.063 C704.635,105.67 701.386,105.63 698.277,104.946 C695.492,104.334 692.773,103.206 689.922,103.232 C685.716,103.271 681.848,105.896 679.394,109.312 C675.922,114.144 673.677,122.411 674.9,128.773 C674.711,127.786 678.032,124.209 678.716,123.44 C680.158,121.816 681.9,120.294 684.102,120.032 C689.087,119.438 694.995,121.917 699.003,124.827" id="Fill-19" fill="#292949"></path>
                <path d="M236.307,581.083 C236.688,579.911 237.315,578.839 238.235,578.064 C238.719,577.656 239.271,577.34 239.742,576.916 C241.96,574.922 241.745,572.976 244.949,573.471 C248.595,574.035 252.223,574.77 255.855,575.418 C255.999,575.444 256.15,575.473 256.262,575.571 C256.422,575.711 256.455,575.95 256.477,576.166 C256.605,577.431 256.734,578.695 256.863,579.96 C257.212,583.379 260.252,584.429 262.733,585.821 C263.371,586.178 264.033,586.539 264.706,586.911 C267.521,588.465 276.077,591.962 271.751,596.339 C269.963,598.148 266.919,598.095 264.576,598.292 C262.313,598.484 260.047,597.903 257.824,597.555 C250.701,596.083 244.147,593.855 237.737,590.295 C235.441,589.02 235.65,585.524 235.9,583.045 C235.968,582.383 236.101,581.718 236.307,581.083" id="Fill-20" fill="#292949"></path>
                <polyline id="Fill-21" fill="#9EA6AD" points="250.308 359.415 242.536 387.81 249.23 469.219 237.898 577.185 259.21 579.355 288.662 476.393 312.434 363.595 250.308 359.415"></polyline>
                <path d="M335.282,591.415 C335.369,590.186 335.722,588.994 336.427,588.021 C336.799,587.509 337.259,587.068 337.614,586.543 C339.286,584.074 338.609,582.237 341.838,581.947 C345.512,581.616 349.211,581.457 352.893,581.212 C353.038,581.202 353.191,581.194 353.323,581.262 C353.513,581.359 353.603,581.583 353.676,581.788 C354.105,582.984 354.535,584.181 354.965,585.377 C356.126,588.612 359.328,588.9 362.072,589.653 C362.777,589.846 363.507,590.037 364.249,590.236 C367.356,591.067 376.502,592.402 373.356,597.691 C372.056,599.877 369.09,600.559 366.862,601.314 C364.711,602.045 362.373,602.026 360.132,602.223 C352.864,602.51 345.967,601.924 338.889,600.012 C336.353,599.327 335.714,595.884 335.36,593.417 C335.266,592.758 335.235,592.081 335.282,591.415" id="Fill-22" fill="#292949"></path>
                <polyline id="Fill-23" fill="#9EA6AD" points="295.519 372.894 285.273 393.504 320.901 479.729 335.89 587.249 357.096 584.225 360.899 477.201 356.823 361.998 295.519 372.894"></polyline>
                <path d="M225.776,359.626 C226.621,354.384 227.494,350.018 227.739,348.448 C231.054,327.151 240.593,306.792 246.738,286.224 C254.046,261.764 262.566,237.666 272.26,214.05 C275.852,205.297 280.411,195.791 289.194,192.266 C299.29,188.216 309.021,180.022 319.097,185.942 C321.155,187.151 323.679,187.725 325.834,188.804 C338.639,195.208 345.087,205.644 347.911,219.652 C350.185,230.923 352.457,242.194 354.729,253.465 C356.596,262.72 358.463,271.979 359.914,281.313 C363.715,305.745 364.642,330.542 364.494,355.262 C364.421,367.655 364.074,380.046 363.684,392.434 C363.434,400.351 359.874,396.554 355.482,393.566 C347.912,388.416 340.425,383.049 331.535,380.405 C327.219,379.121 322.733,378.514 318.258,378.009 C291.04,374.937 263.258,375.506 236.552,381.594 C234.965,381.955 233.348,382.351 231.978,383.229 C230.147,384.403 227.509,387.264 225.33,385.315 C223.975,384.104 224.06,380.572 223.988,378.967 C223.701,372.528 224.754,365.962 225.776,359.626" id="Fill-24" fill="#353A85"></path>
                <path d="M334.24,136.961 C336.27,141.713 336.923,147.003 336.59,152.176 C336.502,153.552 336.423,155.143 337.424,156.07 C338.496,157.063 337.267,158.849 338.277,157.789 C339.289,156.729 342.732,153.038 343.025,151.593 C343.712,148.205 344.079,144.752 344.122,141.295 C344.159,138.289 343.896,135.114 342.228,132.636 C341.237,131.166 339.825,130.055 338.433,128.975 C336.413,127.408 334.328,125.823 331.895,125.08 C327.699,123.799 324.904,125.073 328.355,128.525 C330.827,130.997 332.851,133.706 334.24,136.961" id="Fill-25" fill="#292949"></path>
                <path d="M301.322,192.478 C307.153,193.684 312.984,194.89 318.815,196.097 C320.271,191.019 321.364,185.819 322.081,180.563 C327.31,180.23 333.526,179.205 335.87,173.93 C336.608,172.269 336.83,170.398 337.041,168.568 C337.913,161 338.785,153.433 339.657,145.865 C339.959,143.248 340.256,140.549 339.637,138.022 C338.549,133.587 334.892,130.613 331.208,128.591 C321.808,123.429 310.321,122.333 300.611,127.144 C298.027,128.424 295.531,130.161 293.848,132.707 C291.253,136.632 290.968,141.798 290.783,146.635 C290.612,151.1 290.442,155.565 290.271,160.03 C290.075,165.165 290.195,171.114 293.796,174.233 C295.708,175.888 298.35,176.444 299.931,178.489 C302.719,182.095 300.658,187.74 301.322,192.478" id="Fill-26" fill="#E2B596"></path>
                <path d="M319.449,174.374 C316.578,175.909 313.621,175.684 310.74,174.445 C309.516,173.918 310.286,171.815 311.513,172.343 C313.9,173.37 316.233,173.605 318.623,172.328 C319.826,171.685 320.645,173.735 319.449,174.374 Z M339.173,165.746 C339.241,164.333 339.082,160.151 336.727,162.51 C336.11,163.127 335.873,164.068 335.742,164.965 C335.612,165.862 335.552,166.793 335.182,167.61 C334.331,169.486 332.118,170.14 330.235,169.898 C329.486,169.803 328.735,169.594 328.113,169.136 C327.51,168.693 327.063,168.044 326.627,167.408 C325.568,165.862 324.51,164.316 323.452,162.77 C321.633,160.113 317.392,160.711 314.547,160.775 C311.27,160.85 307.929,161.487 305.055,163.36 C304.765,163.549 304.479,163.75 304.194,163.95 C303.497,164.439 302.798,164.922 302.019,165.207 C299.389,166.169 296.438,164.54 294.938,162.037 C294.25,160.889 293.649,159.443 292.423,159.129 C291.464,158.884 290.438,159.49 289.839,160.362 C289.239,161.235 288.985,162.325 288.802,163.393 C288.134,167.278 288.229,171.37 289.521,175.022 C292.324,182.943 299.214,184.633 306.257,185.235 C309.04,185.473 311.824,185.711 314.608,185.949 C319.698,186.384 325.087,186.758 329.688,184.226 C333.745,181.992 336.474,177.736 337.901,173.123 C338.639,170.741 339.052,168.245 339.173,165.746 Z" id="Fill-27" fill="#292949"></path>
                <path d="M344.662,124.824 C345.351,123.043 345.915,121.212 346.35,119.35 C344.565,119.774 342.677,119.732 340.914,119.228 C341.027,118.139 341.141,117.05 341.254,115.96 C341.344,115.053 329.365,113.097 328.395,112.908 C319.313,111.139 311.01,109.492 302.184,113.586 C294.644,117.082 289.416,122.966 287.434,131.152 C285.539,138.973 286.974,149.617 290.775,156.698 C290.978,154.582 290.319,149.468 291.026,147.514 C291.544,145.535 292.437,143.67 293.572,141.983 C295.842,138.613 299.083,135.923 302.684,134.145 C308.425,131.311 314.865,130.185 321.198,129.986 C327.001,129.803 334.046,129.82 339.525,131.979 C342.159,133.016 342.534,133.758 344.479,131.153 C344.821,130.693 347.738,125.209 347.514,125.181 C346.563,125.062 345.613,124.943 344.662,124.824" id="Fill-28" fill="#292949"></path>
                <path d="M901.868,582.17 C904.848,582.538 907.644,581.642 910.561,581.48 C911.002,571.233 910.448,561.353 908.813,551.118 C904.022,555.868 900.392,552.744 900.014,562.155 C899.891,565.201 902.717,577.572 901.868,582.17" id="Fill-29" fill="#E2B596"></path>
                <path d="M911.503,576.424 C914.974,575.4 915.281,583.565 915.199,585.476 C915.149,586.625 914.947,587.787 915.177,588.914 C915.428,590.154 916.176,591.226 916.906,592.259 C918.436,594.422 919.966,596.586 921.495,598.749 C922.183,599.721 922.882,600.717 923.215,601.861 C924.041,604.694 922.23,607.897 919.524,609.078 C910.135,613.173 902.429,601.535 900.869,594.052 C900.63,592.905 900.474,591.743 900.317,590.582 C899.995,588.179 898.489,582.896 899.564,580.628 C900.818,577.982 904.04,580.133 906.282,579.235 C908.362,578.403 910.1,576.841 911.503,576.424" id="Fill-30" fill="#292949"></path>
                <path d="M855.844,410.318 C863.043,433.968 871.58,457.185 875.809,481.754 C881.031,512.105 890.532,541.952 894.559,572.302 C898.25,572.632 901.967,572.684 905.667,572.458 C909.908,572.199 916.66,571.44 918.441,566.926 C919.352,564.618 918.744,560.747 918.764,558.297 C918.826,550.452 918.71,542.604 918.576,534.76 C918.199,512.565 918.349,490.129 915.516,468.11 C912.536,444.946 909.742,421.714 907.276,398.582 C906.001,386.627 904.272,374.72 901.984,362.915 C901.395,359.874 895.238,328.52 893.672,328.679 C875.087,330.568 857.511,335.693 840.932,344.299 C839.32,345.135 837.753,346.151 837.118,347.767 C836.482,349.382 836.894,350.829 837.312,352.351 C841.3,366.868 846.936,380.589 851.244,395.069 C852.743,400.107 854.269,405.145 855.844,410.318" id="Fill-31" fill="#292949"></path>
                <path d="M841.646,573.493 C838.789,574.414 835.875,574.059 832.979,574.448 C830.622,564.467 829.311,554.658 828.993,544.299 C834.591,548.064 837.57,544.313 839.71,553.486 C840.402,556.455 839.95,569.136 841.646,573.493" id="Fill-32" fill="#E2B596"></path>
                <path d="M830.22,571.327 C829.898,576.878 825.19,582.609 822.49,587.464 C822.173,588.035 821.848,588.63 821.799,589.281 C821.727,590.25 822.271,591.145 822.794,591.962 C823.521,593.098 824.312,594.292 825.537,594.854 C826.742,595.406 828.139,595.243 829.447,595.032 C831.635,594.68 833.808,594.228 835.954,593.677 C836.489,593.54 837.036,593.391 837.483,593.068 C838.015,592.686 838.354,592.099 838.678,591.531 C840.338,588.613 841.728,586.555 841.836,583.207 C841.948,579.747 841.715,576.144 842.54,572.757 C842.945,571.115 843.479,569.015 842.108,568.023 C841.049,567.256 838.98,568.113 837.772,568.24 C835.641,568.466 833.696,568.225 831.688,569.223 C831.279,569.427 830.878,569.677 830.612,570.048 C830.342,570.426 830.246,570.864 830.22,571.327" id="Fill-33" fill="#292949"></path>
                <path d="M854.574,396.055 C851.945,420.636 847.921,445.043 848.383,469.969 C848.953,500.762 845.227,531.862 846.974,562.428 C843.409,563.445 839.769,564.194 836.092,564.667 C831.877,565.21 825.103,565.733 822.506,561.633 C821.178,559.537 821.048,555.621 820.568,553.219 C819.033,545.525 817.674,537.794 816.331,530.065 C812.533,508.194 808.172,486.185 806.818,464.026 C805.395,440.715 803.775,417.371 801.854,394.188 C800.859,382.206 800.321,370.187 800.352,358.162 C800.359,355.064 800.518,323.112 802.085,322.974 C820.694,321.339 838.921,323.071 856.821,328.41 C858.561,328.928 860.291,329.633 861.219,331.1 C862.146,332.568 862.014,334.065 861.889,335.639 C860.698,350.646 857.74,365.183 856.228,380.214 C855.701,385.443 855.149,390.679 854.574,396.055" id="Fill-34" fill="#292949"></path>
                <path d="M876.133,198.827 C876.427,198.946 876.719,199.069 877.01,199.199 C881.858,201.359 885.882,204.982 889.816,208.546 C895.726,213.898 898.651,216.264 900.625,223.808 C902.464,230.843 903.448,238.218 904.411,245.415 C909.356,282.365 908.651,318.842 911.602,355.954 C912.404,366.056 912.796,377.901 904.992,384.367 C892.417,373.385 875.915,371.858 859.962,370.941 C848.759,370.298 838.01,366.049 826.708,366.664 C815.907,367.252 806.685,364.039 795.752,364.132 C793.116,364.154 789.771,363.936 788.873,361.458 C793.282,350.372 793.904,338.217 795.43,326.384 C799.375,295.778 811.225,266.864 817.06,236.573 C819.044,226.277 820.763,209.098 829.242,201.699 C838.456,193.659 858.383,194.612 869.51,196.916 C871.763,197.382 874,197.969 876.133,198.827" id="Fill-35" fill="#D67086"></path>
                <path d="M866.389,203.72 C866.193,204.053 865.939,204.368 865.605,204.662 C864.29,205.82 862.524,206.419 860.798,206.568 C858.521,206.763 856.248,206.258 854.031,205.704 C851.037,204.955 851.244,203.189 850.961,200.417 C850.807,198.902 850.742,197.38 850.715,195.858 C850.699,195.024 851.189,192.067 850.693,191.455 C850.355,191.04 848.886,191.09 848.264,190.719 C847.277,190.131 846.483,189.105 845.927,188.122 C845.029,186.535 844.587,184.739 844.155,182.968 C843.403,179.886 842.652,176.805 841.9,173.724 C841.133,170.576 840.361,167.401 840.24,164.163 C840.059,159.282 841.231,152.473 845.097,149.13 C848.623,146.081 853.564,145.223 858.069,144.904 C864.035,144.483 870.112,145.914 875.05,149.347 C877.044,150.733 878.909,152.49 880.001,154.823 C881.684,158.418 881.294,162.767 880.861,166.829 C880.462,170.577 880.063,174.326 879.664,178.075 C879.204,182.387 878.384,187.34 875.012,189.501 C873.221,190.649 870.957,190.788 869.395,192.301 C867.437,194.196 867.387,197.204 867.166,199.735 C867.04,201.182 867.07,202.56 866.389,203.72" id="Fill-36" fill="#AA6755"></path>
                <path d="M840.586,171.106 C840.712,171.966 840.822,172.846 840.883,173.754 C841.396,181.477 840.2,188.904 841.748,196.65 C834.79,193.256 828.554,187.898 823.694,181.139 C822.859,179.977 822.05,178.744 821.635,177.293 C821.24,175.91 821.228,174.41 821.245,172.941 C821.353,163.55 822.489,154.15 824.617,145.051 C825.462,141.44 826.481,137.828 828.227,134.681 C833.488,125.193 844.052,122.021 853.56,121.922 C859.064,121.864 864.827,122.676 869.279,126.39 C874.083,130.398 875.385,137.323 875.15,143.237 C875.093,144.688 874.986,146.199 874.256,147.454 C872.738,150.057 869.25,150.563 866.24,150.712 C862.012,150.922 857.746,150.99 853.61,151.896 C849.475,152.803 845.407,154.636 842.621,157.823 C838.711,162.295 839.893,166.385 840.586,171.106" id="Fill-37" fill="#292949"></path>
                <path d="M889.776,135.813 C891.073,138.404 892.09,141.182 892.883,144.085 C895.684,154.341 898.313,164.046 896.802,174.917 C896.592,176.43 896.315,177.949 895.753,179.339 C894.995,181.209 893.758,182.749 892.504,184.207 C887.49,190.037 881.866,195.133 875.809,199.336 C878.366,186.24 880.879,172.201 876.793,159.826 C873.62,150.213 866.982,143.395 859.716,138.156 C855.656,135.229 844.726,129.303 847.528,122.768 C851.389,113.766 872.542,119.496 878.404,123.122 C883.576,126.322 887.222,130.706 889.776,135.813" id="Fill-38" fill="#292949"></path>
                <path d="M210.537,182.622 C210.246,182.681 209.945,182.745 209.692,182.88 C207.329,184.14 206.851,186.212 204.93,188.065 C204.072,188.891 201.091,188.194 201.566,190.634 C201.742,191.535 202.484,193.683 202.877,195.599 C203.449,198.394 202.485,202.282 201.15,205.228 C199.356,209.187 197.366,213.336 195.02,216.954 C190.091,224.555 183.768,232.472 177.475,239.005 C166.224,229.093 149.232,226.241 135.362,231.935 C133.912,232.531 132.448,233.247 131.454,234.458 C130.612,235.481 130.177,236.779 129.907,238.077 C127.062,251.797 140.184,253.907 150.686,256.049 C157.24,257.386 163.979,258.328 170.663,258.684 C180.024,259.183 186.177,253.955 191.689,246.67 C197.532,238.95 203.313,231.025 207.397,222.204 C209.383,217.917 210.419,213.564 211.815,209.098 C213.194,204.685 215.082,205.546 217.281,201.993 C218.508,200.01 220.134,198.221 220.974,196.037 C222.479,192.12 220.141,188.471 218.41,185.082 C217.979,184.238 217.69,183.667 216.964,183.156 C215.782,182.326 214.383,182.382 212.991,182.387 C212.167,182.391 211.34,182.459 210.537,182.622" id="Fill-39" fill="#E2B596"></path>
                <path d="M154.957,263.374 C155.693,263.623 156.427,263.838 157.151,264.004 C161.124,264.916 165.861,264.59 169.926,264.654 C177.22,264.77 185.164,264.677 190.872,260.134 C193.073,258.383 194.765,256.088 196.418,253.813 C204.253,243.026 211.817,232.044 219.102,220.878 C214.32,215.763 208.758,211.379 202.667,207.924 C200.958,206.954 199.04,206.029 197.106,206.383 C194.235,206.909 192.638,209.922 191.456,212.591 C189.53,216.938 187.605,221.286 185.681,225.633 C185.056,227.044 184.308,228.579 182.884,229.172 C181.953,229.559 180.901,229.463 179.901,229.345 C171.771,228.386 163.746,226.713 155.879,224.457 C152.25,223.416 148.004,222.604 144.885,220.471 C141.693,218.29 139.429,215.108 137.475,211.828 C135.333,208.234 133.447,204.432 130.639,201.331 C127.831,198.229 123.846,195.855 119.674,196.172 C116.599,196.406 113.83,198.041 111.188,199.634 C106.009,202.758 100.382,206.467 98.933,212.339 C97.691,217.37 99.948,222.623 102.907,226.876 C109.202,235.922 118.599,242.245 127.771,248.354 C134.15,252.602 140.568,256.875 147.521,260.143 C149.858,261.242 152.421,262.513 154.957,263.374" id="Fill-40" fill="#474EBB"></path>
                <polyline id="Fill-41" fill="#292949" points="55.155 582.891 54.657 591.377 71.132 600.858 80.115 592.87 72.127 583.886 55.652 574.405 55.155 582.891"></polyline>
                <polyline id="Fill-42" fill="#292949" points="43.517 325.172 42.006 350.943 69.818 464.636 54.428 580.104 71.063 584.458 118.326 445.93 119.457 404.15 108.578 318.166 43.517 325.172"></polyline>
                <polyline id="Fill-43" fill="#292949" points="150.157 339.04 161.981 446.898 155.268 588.117 139.622 589.649 117.158 462.152 83.166 335.784 150.157 339.04"></polyline>
                <polyline id="Fill-44" fill="#292949" points="139.53 587.778 140.358 596.238 158.107 603.041 165.738 593.752 156.45 586.121 139.53 587.778"></polyline>
                <path d="M28.623,338.837 C27.508,348.675 26.606,361.989 30.349,362.821 C31.05,362.977 31.763,362.688 32.414,362.406 C39.289,359.428 44.381,354.818 51.151,351.952 C58.247,348.949 66.163,347.731 73.876,347.076 C85.416,346.037 97.135,345.809 108.718,346.662 C117.823,347.333 126.887,348.94 135.871,350.519 C143.346,351.833 150.15,354.705 157.872,354.872 C165.786,355.045 173.752,353.342 180.851,349.824 C181.111,349.695 181.387,349.547 181.514,349.286 C181.652,349 181.573,348.662 181.492,348.355 C180.288,343.807 179.531,339.343 176.946,335.431 C174.06,331.063 172.217,325.68 170.285,320.832 C166.259,310.727 162.561,300.184 160.069,289.583 C156.163,275.127 151.484,260.965 147.754,246.478 C145.169,236.437 142.904,226.25 139.034,216.6 C136.003,209.045 130.39,197.9 122.759,193.999 C120.177,192.678 117.227,192.312 114.348,191.965 C105.611,190.915 96.876,189.865 88.14,188.814 C84.955,188.431 81.64,188.061 78.608,189.111 C74.066,190.684 71.183,195.041 68.638,199.118 C57.224,217.402 49.177,237.503 43.781,258.497 C40.964,269.459 38.28,280.455 35.962,291.526 C33.375,303.882 31.236,316.335 29.881,328.879 C29.731,330.273 29.152,334.162 28.623,338.837" id="Fill-45" fill="#474EBB"></path>
                <path d="M96.708,238.454 C96.585,243.448 95.424,248.35 94.269,253.212 C87.232,282.819 80.196,312.426 73.16,342.034 C96.697,343.974 120.235,345.915 143.773,347.855 C143.946,336.537 144.12,325.219 144.294,313.902 C144.405,306.646 144.515,299.365 143.639,292.155 C142.226,280.525 138.282,269.34 134.364,258.259 C127.124,237.786 119.885,217.313 112.646,196.84 C112.259,195.745 111.849,194.613 111.027,193.775 C110.044,192.772 108.616,192.336 107.246,191.967 C100.63,190.186 93.128,188.505 86.281,188.881 C84.031,194.877 89.287,206.138 91.075,212.07 C93.676,220.702 96.933,229.332 96.708,238.454" id="Fill-46" fill="#FFFFFF"></path>
                <path d="M104.951,196.062 C100.096,195.406 95.24,194.749 90.385,194.093 C90.477,190.187 90.88,186.289 91.592,182.447 C91.506,182.913 84.079,178.089 83.475,177.093 C81.732,174.226 81.912,169.694 81.378,166.423 C80.237,159.456 79.282,151.641 83.43,145.928 C87.726,140.012 95.98,138.605 103.276,139.079 C112.437,139.674 122.397,143.268 126.382,151.539 C129.98,159.009 123.673,168.966 121.461,176.316 C120.37,179.94 118.835,184.05 115.262,185.296 C113.364,185.958 111.163,185.667 109.43,186.684 C106.374,188.478 106.619,192.935 104.951,196.062" id="Fill-47" fill="#E2B596"></path>
                <path d="M142.017,139.31 C143.021,134.308 144.024,129.306 145.028,124.305 C145.401,122.447 145.773,120.518 145.33,118.676 C144.593,115.613 141.744,113.481 138.79,112.385 C135.836,111.289 132.649,110.967 129.646,110.013 C126.44,108.995 123.394,107.247 120.034,107.09 C113.646,106.79 108.236,112.248 101.854,112.679 C93.02,113.276 85.387,108.557 79.193,118.327 C78.056,120.122 77.591,122.265 76.562,124.125 C75.233,126.527 73.05,128.318 71.279,130.416 C63.495,139.642 64.357,154.799 71.942,163.911 C75.62,168.329 76.94,172.142 82.397,173.949 C80.317,168.527 85.574,148.161 92.775,146.478 C94.684,146.034 100.037,148.805 102.061,149.292 C106.543,150.37 110.893,151.502 115.004,153.661 C121.107,156.866 127.822,159.356 134.641,160.494 C135.512,160.64 136.491,160.762 137.207,160.243 C137.88,159.755 138.092,158.862 138.256,158.046 C139.509,151.801 140.763,145.556 142.017,139.31" id="Fill-48" fill="#292949"></path>
                <polyline id="Fill-49" fill="#D67086" points="137.1 465.266 0.045 414.71 67.097 232.898 204.151 283.454 137.1 465.266"></polyline>
                <polyline id="Fill-50" fill="#9F5566" points="134.858 459.806 15.202 411.428 13.15 410.671 133.068 454.906 195.104 286.695 134.858 459.806"></polyline>
                <polyline id="Fill-51" fill="#FFFFFF" points="133.068 454.906 9.838 409.449 71.874 241.238 195.104 286.695 133.068 454.906"></polyline>
                <polyline id="Fill-52" fill="#CB6A7F" points="43.938 314.469 71.44 240.348 106.966 253.452 106.729 254.095 71.874 241.238 45.007 314.087 43.938 314.469"></polyline>
                <path d="M45.007,314.087 L71.874,241.238 L106.729,254.095 L105.215,258.201 L152.641,275.695 L85.451,299.661 C80.591,297.868 75.731,296.076 70.871,294.283 C70.761,294.242 70.647,294.223 70.533,294.223 C70.124,294.223 69.73,294.475 69.583,294.872 C68.104,298.883 66.625,302.893 65.146,306.904 L45.007,314.087 M67.611,306.025 C68.781,302.851 69.952,299.677 71.122,296.504 C74.921,297.905 78.719,299.306 82.518,300.708 L67.611,306.025" id="Fill-53" fill="#F2F2F2"></path>
                <polyline id="Fill-54" fill="#BC6376" points="160.249 273.837 159.069 273.402 160.075 273.043 106.966 253.452 107.057 253.207 160.576 272.949 160.249 273.837"></polyline>
                <polyline id="Fill-55" fill="#E0E0E0" points="158.734 277.943 152.641 275.695 159.069 273.402 160.249 273.837 158.734 277.943"></polyline>
                <polyline id="Fill-56" fill="#B25D70" points="159.069 273.402 106.729 254.095 106.966 253.452 160.075 273.043 159.069 273.402"></polyline>
                <polyline id="Fill-57" fill="#D5D5D5" points="152.641 275.695 105.215 258.201 106.729 254.095 159.069 273.402 152.641 275.695"></polyline>
                <path d="M146.357,250.79 L132.257,245.589 C130.815,245.057 130.068,243.45 130.598,242.017 C131.126,240.584 132.737,239.847 134.179,240.378 L148.279,245.58 C149.721,246.112 150.468,247.719 149.939,249.152 C149.41,250.584 147.799,251.322 146.357,250.79 Z M155.178,253.795 L154.348,253.489 L154.553,252.933 C156.486,247.689 153.143,241.627 147.085,239.392 L139.104,236.448 C133.046,234.214 126.567,236.653 124.634,241.896 L124.429,242.453 L123.598,242.146 C117.539,239.911 111.061,242.35 109.127,247.594 L105.215,258.201 L158.734,277.943 L162.646,267.336 C164.58,262.093 161.236,256.03 155.178,253.795 Z" id="Fill-58" fill="#E4EAE9"></path>
                <path d="M81.996,320.883 C81.884,320.883 81.765,320.862 81.64,320.816 C75.609,318.591 69.578,316.366 63.547,314.142 C63.037,313.954 62.764,313.364 62.95,312.857 C63.682,310.873 64.414,308.888 65.146,306.904 L67.611,306.025 C66.801,308.222 65.991,310.419 65.181,312.616 C70.583,314.609 75.985,316.602 81.389,318.595 C83.369,313.224 85.35,307.854 87.33,302.483 C85.726,301.891 84.122,301.299 82.518,300.708 L85.451,299.661 C86.622,300.093 87.793,300.525 88.964,300.957 C89.475,301.145 89.747,301.735 89.56,302.241 C87.349,308.236 85.139,314.232 82.928,320.227 C82.825,320.504 82.646,320.677 82.437,320.77 L82.412,320.782 L82.369,320.801 C82.256,320.852 82.131,320.883 81.996,320.883" id="Fill-59" fill="#C8CDCF"></path>
                <path d="M65.146,306.904 C66.625,302.893 68.104,298.883 69.583,294.872 C69.73,294.475 70.124,294.223 70.533,294.223 C70.647,294.223 70.761,294.242 70.871,294.283 C75.731,296.076 80.591,297.868 85.451,299.661 L82.518,300.708 C78.719,299.306 74.921,297.905 71.122,296.504 C69.952,299.677 68.781,302.851 67.611,306.025 L65.146,306.904" id="Fill-60" fill="#C2C6C8"></path>
                <path d="M69.732,354.137 C69.62,354.137 69.501,354.116 69.376,354.07 C63.345,351.845 57.313,349.621 51.283,347.396 C50.772,347.208 50.499,346.618 50.687,346.112 C52.897,340.117 55.108,334.121 57.319,328.127 C57.466,327.729 57.861,327.477 58.27,327.477 C58.383,327.477 58.497,327.497 58.607,327.537 C64.638,329.762 70.669,331.986 76.699,334.211 C77.21,334.399 77.483,334.989 77.297,335.496 C75.085,341.49 72.874,347.486 70.663,353.481 C70.562,353.758 70.381,353.931 70.173,354.025 L70.149,354.037 L70.106,354.055 C69.993,354.107 69.867,354.137 69.732,354.137 M58.859,329.758 C56.878,335.129 54.898,340.499 52.916,345.87 C58.319,347.863 63.722,349.856 69.124,351.849 C71.104,346.478 73.086,341.108 75.066,335.737 C69.664,333.744 64.261,331.751 58.859,329.758" id="Fill-61" fill="#C8CDCF"></path>
                <path d="M57.468,387.391 C57.356,387.391 57.236,387.37 57.111,387.324 C51.081,385.1 45.05,382.875 39.019,380.65 C38.509,380.462 38.235,379.873 38.422,379.366 C40.633,373.371 42.844,367.376 45.055,361.381 C45.202,360.983 45.597,360.731 46.005,360.731 C46.118,360.731 46.233,360.751 46.343,360.791 C52.374,363.016 58.404,365.241 64.436,367.465 C64.946,367.654 65.219,368.243 65.032,368.75 C62.821,374.745 60.61,380.74 58.399,386.735 C58.297,387.013 58.117,387.186 57.908,387.279 L57.884,387.291 L57.841,387.309 C57.729,387.361 57.603,387.391 57.468,387.391 M46.595,363.013 C44.613,368.383 42.633,373.754 40.652,379.124 C46.055,381.118 51.458,383.11 56.86,385.103 C58.841,379.732 60.821,374.362 62.802,368.991 C57.399,366.998 51.997,365.006 46.595,363.013" id="Fill-62" fill="#C8CDCF"></path>
                <polyline id="Fill-63" fill="#D67086" points="74.455 303.336 79.122 303.492 79.907 308.478 105.026 301.568 107.167 302.88 77.12 313.189 74.455 303.336"></polyline>
                <polyline id="Fill-64" fill="#D67086" points="60.372 336.877 65.039 337.033 65.824 342.019 90.943 335.109 93.084 336.421 63.037 346.73 60.372 336.877"></polyline>
                <polyline id="Fill-65" fill="#D67086" points="48.388 368.212 53.055 368.368 53.84 373.354 78.959 366.445 81.1 367.756 51.053 378.066 48.388 368.212"></polyline>
                <polyline id="Fill-66" fill="#DADDDE" points="133.873 411.596 70.046 388.052 73.362 379.059 137.189 402.603 133.873 411.596"></polyline>
                <polyline id="Fill-67" fill="#DADDDE" points="146.862 376.374 83.036 352.83 86.353 343.838 150.179 367.382 146.862 376.374"></polyline>
                <polyline id="Fill-68" fill="#DADDDE" points="159.853 341.153 96.025 317.609 99.342 308.616 163.169 332.161 159.853 341.153"></polyline>
                <path d="M42.425,285.131 C42.008,286.249 42.01,287.813 43.1,288.3 C43.752,288.592 44.503,288.346 45.207,288.221 C47.871,287.749 50.759,289.336 51.787,291.839 C52.999,294.785 51.599,298.331 49.149,300.37 C46.7,302.408 43.438,303.19 40.265,303.47 C38.272,303.646 36.046,303.57 34.586,302.203 C33.835,301.5 33.388,300.539 32.999,299.587 C31.002,294.7 29.338,288.325 33.2,283.88 C36.239,280.383 45.25,277.568 42.425,285.131" id="Fill-69" fill="#E2B596"></path>
                <path d="M19.597,284.137 C19.998,283.636 20.457,283.17 20.982,282.744 C25.219,279.312 30.699,276.014 36.338,277.763 C34.64,288.209 36.256,299.169 40.896,308.68 C41.264,309.433 41.655,310.307 41.314,311.072 C40.674,312.509 36.043,313.533 34.651,313.594 C28.514,313.866 22.186,310.807 19.523,306.281 C17.962,303.625 17.619,300.667 17.322,297.781 C16.863,293.323 16.654,287.813 19.597,284.137" id="Fill-70" fill="#474EBB"></path>
                <polygon id="Fill-71" fill="#D67086" points="272.759 569.44 515.326 569.44 515.326 335.204 272.759 335.204"></polygon>
                <polyline id="Fill-72" fill="#CC5E7B" points="515.326 569.44 575.31 509.456 575.31 275.22 515.326 335.204 515.326 569.44"></polyline>
                <polyline id="Fill-73" fill="#E889A2" points="515.326 335.204 575.31 275.22 332.743 275.22 272.759 335.204 515.326 335.204"></polyline>
                <polyline id="Fill-74" fill="#CC5E7B" points="436.78 275.22 376.797 335.204 376.797 382.416 411.246 382.416 411.246 335.204 411.288 335.204 471.272 275.22 436.78 275.22"></polyline>
                <polyline id="Fill-75" fill="#FFFFFF" points="444.433 396.658 411.268 439.468 431.395 439.468 431.395 508.048 457.471 508.048 457.471 439.468 477.599 439.468 444.433 396.658"></polyline>
                <polyline id="Fill-76" fill="#FFFFFF" points="310.486 439.468 330.614 439.468 330.614 508.048 356.69 508.048 356.69 439.468 376.817 439.468 343.652 396.658 310.486 439.468"></polyline>
                <polygon id="Fill-77" fill="#FFFFFF" points="304.865 524.822 483.22 524.822 483.22 521.296 304.865 521.296"></polygon>
                <polygon id="Fill-78" fill="#FFFFFF" points="304.865 535.329 483.22 535.329 483.22 531.803 304.865 531.803"></polygon>
                <polygon id="Fill-79" fill="#FFFFFF" points="304.865 545.837 483.22 545.837 483.22 542.311 304.865 542.311"></polygon>
                <path d="M574.038,343.301 C574.038,290.778 616.616,248.199 669.14,248.199 C721.663,248.199 764.242,290.778 764.242,343.301 C764.242,395.824 721.663,438.403 669.14,438.403 C616.616,438.403 574.038,395.824 574.038,343.301" id="Fill-80" fill="#8CABEF"></path>
                <path d="M764.242,343.245 C764.233,327.552 760.424,312.749 753.683,299.705 C753.682,299.666 753.68,299.628 753.679,299.589 C760.43,312.649 764.242,327.473 764.242,343.189 C764.242,343.208 764.242,343.226 764.242,343.245" id="Fill-81" fill="#D6D6D6"></path>
                <path d="M753.683,299.705 C745.728,284.31 733.694,271.367 719.007,262.306 C718.97,262.248 718.933,262.19 718.895,262.131 C733.628,271.194 745.704,284.161 753.679,299.589 C753.68,299.628 753.682,299.666 753.683,299.705" id="Fill-82" fill="#22223D"></path>
                <path d="M669.14,438.291 C635.479,438.291 605.901,420.802 589,394.415 C603.476,403.32 620.515,408.459 638.756,408.459 C691.279,408.459 733.858,365.881 733.858,313.357 C733.858,294.57 728.409,277.055 719.007,262.306 C733.694,271.367 745.728,284.31 753.683,299.705 C760.424,312.749 764.233,327.552 764.242,343.245 C764.211,395.742 721.644,438.291 669.14,438.291" id="Fill-83" fill="#7590C9"></path>
                <path d="M691.82,250.928 C693.516,251.343 695.193,251.801 696.853,252.306 L691.82,250.928" id="Fill-84" fill="#95B84C"></path>
                <path d="M702.561,254.244 C700.038,253.911 697.4,253.899 694.483,254.362 C695.666,253.532 696.425,252.853 696.853,252.306 C695.193,251.801 693.516,251.343 691.82,250.928 C691.697,250.966 691.575,251.006 691.456,251.048 C689.158,251.853 688.821,251.937 689.198,253.388 C688.305,253.029 687.45,252.613 686.665,252.13 L675.654,252.13 C682.629,259.844 669.109,259.336 664.171,259.35 C663.268,259.353 663.058,257.544 663.572,257.069 C663.817,256.842 669.771,257.069 668.199,257.069 C672.844,257.069 672.261,256.753 672.261,252.13 C667.792,255.425 667.948,252.13 662.88,252.13 C658.126,252.13 655.794,252.392 651.625,254.266 C652.982,255.423 654.34,256.58 655.698,257.736 C653.988,257.348 648.412,255.161 646.888,255.81 C646.179,256.113 645.995,258.003 645.118,258.003 C641.576,258.003 631.939,259.94 631.939,255.879 C631.939,255.861 631.876,255.844 631.765,255.829 C623.021,259.57 614.954,264.584 607.792,270.638 C612.374,269.883 617.188,270.149 618.137,270.149 C618.56,270.149 621.471,277.666 621.498,278.244 C621.656,281.524 619.419,282.82 617.762,285.938 C614.743,291.614 613.41,299.048 613.747,305.423 C613.76,305.653 617.549,309.063 617.549,310.415 C617.549,316.074 618.142,316.165 622.028,320.334 L622.028,313.394 C624.347,319.47 627.148,321.809 629.241,327.754 C631.617,334.501 641.004,329.319 644.193,333.763 C645.599,335.72 648.219,334.823 649.471,336.733 L652.867,341.917 C654.914,345.042 657.41,343.959 661.068,343.959 C664.582,343.959 657.87,356.099 657.87,357.122 C657.87,361.331 663.616,370.913 663.58,372.599 C663.473,377.596 669.714,378.297 673.103,381.375 C675.815,383.857 673.881,390.889 673.796,394.007 C673.6,401.273 678.243,406.494 679.437,413.355 C679.881,415.913 678.898,418.672 679.468,421.124 C680.053,423.642 682.214,425.209 682.182,427.993 C682.133,432.292 694.221,433.099 696.563,433.099 C696.551,433.092 687.737,428.522 687.737,429.07 C687.737,424.99 689.837,425.274 689.838,422.785 C689.839,419.829 687.155,417.395 688.831,413.212 C690.644,408.689 690.438,408.826 695.34,408.826 C695.241,406.747 694.925,404.701 694.39,402.687 C698.77,395.861 708.959,389.292 711.655,387.451 C715.319,384.947 713.268,378.19 714.853,374.59 C716.245,371.426 720.468,368.502 720.671,364.609 C720.826,361.639 718.201,360.914 716.031,360.987 C713.867,361.06 713.651,357.44 712.015,357.44 C707.464,357.44 702.741,356.665 698.8,353.745 C698.146,353.262 697.415,347.455 696.3,346.015 C694.702,343.954 689.596,347.574 687.61,344.77 C686.86,343.71 685.086,339.554 683.875,339.554 C682.226,339.554 673.14,337.787 671.229,339.516 C671.522,339.25 668.129,338.22 667.646,338.22 C667.854,338.22 655.97,344.376 655.97,341.179 C655.97,337.035 657.99,331.68 653.075,331.68 C645.175,331.68 651.896,329.626 651.896,326.007 C651.896,321.364 644.246,327.281 640.215,327.285 C640.321,327.285 635.677,319.667 637.903,319.667 C639.502,319.667 639.751,316.41 640.938,315.024 C644.058,311.376 649.387,310.993 653.138,311.68 C654.656,311.958 660.162,318.345 660.178,319.662 C660.174,319.348 662.422,317.911 662.726,317.445 C663.811,315.781 663.197,315.063 663.469,313.396 C664.379,307.801 664.61,306.695 669.073,303.294 C672.353,300.796 676.936,297.927 679.51,294.694 C681.473,292.226 683.311,290.945 686.163,289.542 C685.871,289.686 688.873,291.371 689.502,291.371 C692.083,291.371 692.705,289.191 694.118,287.234 L689.638,287.234 C694.696,283.366 685.542,281.361 695.68,281.361 C700.659,281.361 701.119,281.429 704.165,277.891 C699.321,277.891 700.499,277.859 700.499,272.926 C700.499,272.105 699.13,269.093 697.823,270.377 C694.25,273.89 694.379,269.734 692.815,267.398 C690.793,264.378 688.61,267.487 687.767,269.318 C686.72,271.589 678.125,275.139 678.145,278.105 C678.155,279.841 675.316,279.771 675.369,277.835 C675.447,274.927 665.401,272.15 665.235,271.015 C665.017,269.517 670.208,265.478 674.723,265.478 C676.797,265.478 675.781,263.075 676.421,263.075 C680.722,263.075 685.793,261.738 688.146,258.27 C687.558,258.27 682.035,258.31 682.035,258.241 C682.035,256.27 681.193,255.067 683.453,255.067 C688.758,255.067 690.331,259.204 696.155,259.204 C694.073,260.717 691.991,262.23 689.91,263.742 C692.833,263.742 697.211,268.598 699.459,267.091 C703.608,264.31 700.812,261.767 704.261,261.194 C704.631,261.583 705.128,261.955 705.953,262.248 C707.032,262.629 710.916,263.323 711.575,264.308 C712.37,265.496 714.392,272.529 712.907,273.141 C710.496,274.134 703.437,281.783 708.837,283.692 C713.011,285.167 714.081,283.307 717.794,280.984 C721.246,278.824 722.186,279.618 726.072,280.991 C726.107,281.004 730.109,280.859 731.607,281.388 C734.886,282.548 734.646,280.477 734.991,280.599 C736.358,281.082 738.994,281.43 740.711,280.68 C730.463,268.978 717.392,259.812 702.561,254.244" id="Fill-85" fill="#FFFFFF"></path>
                <path d="M663.088,320.453 C662.446,321.097 661.804,321.741 661.161,322.385 C667.153,322.385 670.8,324.318 676.115,324.318 C672.548,318.729 669.752,320.453 663.088,320.453" id="Fill-86" fill="#FFFFFF"></path>
                <path d="M682.86,325.292 C678.051,325.147 677.827,325.876 674.882,329.168 C677.416,329.168 679.95,329.175 682.484,329.178 C684.682,329.18 684.377,325.338 682.86,325.292" id="Fill-87" fill="#FFFFFF"></path>
                <path d="M689.682,330.304 C689.682,323.562 682.823,330.304 689.682,330.304" id="Fill-88" fill="#FFFFFF"></path>
                <path d="M586.964,353.334 C586.964,304.57 626.495,265.038 675.26,265.038 C703.764,265.038 729.107,278.548 745.252,299.51 C730.005,273.041 701.428,255.221 668.688,255.221 C619.923,255.221 580.392,294.753 580.392,343.518 C580.392,363.779 587.221,382.442 598.695,397.342 C591.233,384.387 586.964,369.359 586.964,353.334" id="Fill-89" fill="#9DBDF4"></path>
                <path d="M694.572,259.084 C694.98,259.209 695.387,259.338 695.791,259.469 C695.912,259.381 696.034,259.292 696.155,259.204 C695.586,259.204 695.067,259.156 694.572,259.084" id="Fill-90" fill="#A2C14B"></path>
                <path d="M689.91,263.742 C692.833,263.742 697.211,268.598 699.459,267.091 C702.551,265.018 701.787,263.08 702.625,261.988 C700.392,261.058 698.113,260.217 695.791,259.469 C693.831,260.893 691.87,262.318 689.91,263.742" id="Fill-91" fill="#F4F4F4"></path>
                <path d="M694.572,259.084 C693.648,258.801 692.718,258.533 691.781,258.28 C692.607,258.645 693.519,258.933 694.572,259.084" id="Fill-92" fill="#A2C14B"></path>
                <path d="M731.346,281.311 C725.783,275.708 719.469,270.854 712.575,266.896 C713.313,269.389 713.91,272.728 712.907,273.141 C712.809,273.181 712.701,273.236 712.59,273.297 C717.186,275.446 721.565,277.979 725.689,280.854 C725.816,280.9 725.938,280.944 726.072,280.991 C726.105,281.003 729.692,280.875 731.346,281.311" id="Fill-93" fill="#F4F4F4"></path>
                <path d="M675.814,265.046 C676.365,264.355 675.953,263.075 676.421,263.075 C680.722,263.075 685.793,261.738 688.146,258.27 C687.558,258.27 682.035,258.31 682.035,258.241 C682.035,257.421 681.892,256.736 681.884,256.213 C680.469,256 679.045,255.813 677.607,255.669 C677.846,259.671 668.18,259.338 664.171,259.35 C663.268,259.353 663.058,257.544 663.572,257.069 C663.817,256.842 669.771,257.069 668.199,257.069 C671.408,257.069 672.121,256.916 672.256,255.299 C671.071,255.252 669.884,255.221 668.688,255.221 C663.735,255.221 658.881,255.635 654.151,256.419 C654.667,256.858 655.183,257.297 655.698,257.736 C655.027,257.584 653.762,257.156 652.38,256.73 C640.014,259.039 628.556,263.926 618.583,270.812 C619.523,272.656 621.476,277.771 621.498,278.244 C621.656,281.524 619.419,282.82 617.762,285.938 C617.649,286.149 617.556,286.379 617.447,286.595 C632.938,273.165 653.149,265.038 675.26,265.038 C675.445,265.038 675.629,265.045 675.814,265.046" id="Fill-94" fill="#F4F4F4"></path>
                <path d="M679.468,421.124 C680.053,423.642 682.214,425.209 682.182,427.993 C682.133,432.292 694.221,433.099 696.563,433.099 C696.551,433.092 687.737,428.522 687.737,429.07 C687.737,424.99 689.837,425.274 689.838,422.785 C689.839,419.829 687.155,417.395 688.831,413.212 C690.644,408.689 690.438,408.826 695.34,408.826 C695.241,406.747 694.925,404.701 694.39,402.687 C698.77,395.861 708.959,389.292 711.655,387.451 C715.319,384.947 713.268,378.19 714.853,374.59 C716.245,371.426 720.468,368.502 720.671,364.609 C720.717,363.738 720.519,363.063 720.166,362.542 C709.716,379.803 693.929,393.469 675.095,401.263 C676.512,405.264 678.675,408.976 679.437,413.355 C679.881,415.913 678.898,418.672 679.468,421.124" id="Fill-95" fill="#F2F2F2"></path>
                <path d="M581.753,84.986 L543.756,79.274 L570.354,96.723 C577.149,101.182 585.957,104.679 595.804,106.831 L624.347,111.179 L581.753,84.986" id="Fill-96" fill="#474EBB"></path>
                <path d="M385.828,29.209 C382.65,26.016 379.719,22.61 376.7,18.871 C373.044,14.342 375.344,7.481 380.989,6.068 L394.23,2.756 C410.938,-1.424 427.66,-0.441 442.361,5.259 L554.235,52.815 C566.519,58.037 577.617,65.71 586.867,75.377 L592.147,80.895 C594.092,82.927 594.737,85.895 593.818,88.581 C592.771,91.647 589.907,93.711 586.7,93.714 L564.596,92.946 C551.027,89.042 534.394,85.928 520.824,82.023 C497.657,75.356 474.489,68.689 451.321,62.022 C444.62,60.093 437.916,58.18 431.219,56.237 C418.072,52.422 405.948,45.471 395.05,37.261 C391.633,34.687 388.635,32.031 385.828,29.209" id="Fill-97" fill="#474EBB"></path>
                <path d="M458.25,68.463 L471.842,71.972 C473.852,72.491 475.102,74.49 474.687,76.524 L473.848,80.643 C473.432,82.677 471.499,84.036 469.443,83.739 L455.283,81.69 C453.853,81.483 452.623,80.517 452.17,79.148 C450.87,75.232 452.645,71.848 454.185,69.838 C455.133,68.602 456.743,68.074 458.25,68.463" id="Fill-98" fill="#D67086"></path>
                <path d="M454.448,81.475 L454.218,81.44 C454.218,81.44 454.277,81.446 454.385,81.451 C454.406,81.459 454.427,81.467 454.448,81.475" id="Fill-99" fill="#F2F2F2"></path>
                <path d="M468.592,83.614 L454.448,81.475 C454.427,81.467 454.406,81.459 454.385,81.451 C454.451,81.454 454.536,81.456 454.636,81.456 C456.103,81.456 461,80.974 462.342,74.677 L468.592,83.614" id="Fill-100" fill="#CB6A7F"></path>
                <path d="M457.367,72.654 C456.455,75.456 456.009,78.529 456.211,81.445 C456.22,81.559 456.24,81.664 456.251,81.776 L454.91,81.594 C453.587,81.414 452.463,80.476 452.066,79.122 C450.932,75.248 452.642,71.848 454.109,69.818 C455.012,68.571 456.518,68.016 457.909,68.376 L458.966,68.649 C458.316,69.992 457.784,71.371 457.367,72.654" id="Fill-101" fill="#292949"></path>
                <path d="M474.56,92.741 L488.401,95.102 C490.448,95.451 491.858,97.337 491.611,99.397 L491.111,103.57 C490.865,105.631 489.048,107.146 486.974,107.021 L472.686,106.162 C471.244,106.076 469.937,105.216 469.373,103.891 C467.757,100.099 469.248,96.581 470.62,94.449 C471.464,93.139 473.026,92.479 474.56,92.741" id="Fill-102" fill="#D67086"></path>
                <path d="M473.301,96.867 C472.622,99.734 472.428,102.832 472.869,105.719 C472.887,105.832 472.916,105.935 472.935,106.046 L471.585,105.976 C470.25,105.908 469.052,105.067 468.545,103.751 C467.097,99.988 468.523,96.458 469.821,94.314 C470.618,92.997 472.074,92.319 473.491,92.561 L474.567,92.744 C474.03,94.136 473.612,95.554 473.301,96.867" id="Fill-103" fill="#292949"></path>
                <path d="M484.77,106.747 L472.918,105.959 C472.903,105.89 472.887,105.821 472.874,105.75 C474.784,105.39 478.38,104.012 479.179,98.752 L484.77,106.747" id="Fill-104" fill="#CB6A7F"></path>
                <path d="M472.918,105.959 L471.674,105.876 C471.674,105.876 471.681,105.876 471.693,105.876 C471.79,105.876 472.238,105.869 472.874,105.75 C472.887,105.821 472.903,105.89 472.918,105.959" id="Fill-105" fill="#272745"></path>
                <path d="M440.669,43.686 L501.343,130.443 C507.933,139.865 518.882,145.172 530.331,144.493 L534.646,144.237 L504.229,57.377 L440.25,41.187 L440.669,43.686" id="Fill-106" fill="#474EBB"></path>
                <path d="M395.543,2.439 C395.543,2.439 398.418,7.974 410.394,10.717 L406.854,17.934 C406.854,17.934 392.057,13.871 386.453,4.701 L395.543,2.439" id="Fill-107" fill="#8CABEF"></path>
                <polyline id="Fill-108" fill="#474EBB" points="551.747 70.207 552.462 68.981 609.758 37.424 633.866 47.588 594.205 94.423 551.747 70.207"></polyline>
                <path d="M457.807,45.031 C457.69,45.031 457.572,45.009 457.458,44.963 L454.154,43.624 C453.673,43.428 453.44,42.869 453.637,42.382 L456.532,35.211 C456.683,34.839 457.042,34.611 457.418,34.611 C457.534,34.611 457.653,34.633 457.766,34.679 L461.069,36.018 C461.552,36.214 461.785,36.773 461.588,37.261 L458.692,44.431 C458.542,44.803 458.182,45.031 457.807,45.031" id="Fill-109" fill="#5A60C2"></path>
                <path d="M449.057,41.484 C448.94,41.484 448.821,41.462 448.707,41.415 L445.404,40.077 C444.922,39.881 444.69,39.322 444.886,38.834 L447.782,31.664 C447.932,31.291 448.291,31.064 448.667,31.064 C448.784,31.064 448.902,31.086 449.016,31.132 L452.319,32.471 C452.802,32.667 453.035,33.226 452.838,33.713 L449.942,40.884 C449.792,41.256 449.433,41.484 449.057,41.484" id="Fill-110" fill="#5A60C2"></path>
                <path d="M439.017,37.375 C438.838,37.375 438.656,37.341 438.482,37.27 L436.115,36.311 C435.375,36.011 435.018,35.154 435.32,34.405 L437.833,28.182 C438.063,27.611 438.615,27.262 439.191,27.262 C439.37,27.262 439.552,27.295 439.727,27.366 L442.094,28.326 C442.833,28.626 443.192,29.483 442.889,30.232 L440.376,36.455 C440.145,37.026 439.594,37.375 439.017,37.375" id="Fill-111" fill="#5A60C2"></path>
                <path d="M555.945,90.638 C553.411,90.622 550.05,89.379 548.12,88.987 C543.858,88.123 539.61,87.188 535.399,86.101 C532.173,85.269 528.97,84.35 525.782,83.384 C535.4,85.915 546.087,88.169 555.945,90.638" id="Fill-112" fill="#F5F5F5"></path>
                <path d="M555.993,90.638 C555.977,90.638 555.961,90.638 555.945,90.638 C546.087,88.169 535.4,85.915 525.782,83.384 C521.1,81.967 516.447,80.449 511.786,78.956 L510.623,75.638 C516.87,77.589 523.133,79.49 529.394,81.391 C538.936,84.287 548.774,86.739 558.137,90.157 C557.568,90.503 556.826,90.638 555.993,90.638" id="Fill-113" fill="#444BB4"></path>
                <path d="M454.221,63.064 C447.963,61.335 441.745,59.512 435.608,57.506 C440.844,59.016 446.084,60.515 451.321,62.022 C452.226,62.282 453.133,62.543 454.038,62.804 L454.221,63.064 M393.229,35.851 C390.601,33.914 387.988,31.736 385.828,29.209 C388.125,31.519 390.551,33.717 393.229,35.851 M380.911,23.909 C379.262,22.098 377.602,20.186 376.591,18.732 C376.627,18.779 376.663,18.825 376.7,18.871 C378.111,20.619 379.504,22.294 380.911,23.909" id="Fill-114" fill="#F5F5F5"></path>
                <path d="M454.038,62.804 C453.133,62.543 452.226,62.282 451.321,62.022 C446.084,60.515 440.844,59.016 435.608,57.506 C429.48,55.503 423.435,53.317 417.52,50.862 C412.863,48.928 405.818,44.77 401.75,41.784 C399.346,40.019 396.277,38.097 393.229,35.851 C390.551,33.717 388.125,31.519 385.828,29.209 C385.129,28.392 383.028,26.233 380.911,23.909 C379.504,22.294 378.111,20.619 376.7,18.871 C376.663,18.825 376.627,18.779 376.591,18.732 C376.067,17.98 375.718,17.35 375.633,16.92 L375.762,16.857 C378.203,20.155 397.984,32.611 401.044,34.383 C415.57,42.795 431.884,48.976 448.313,54.617 L454.038,62.804" id="Fill-115" fill="#444BB4"></path>
                <path d="M511.786,78.956 C508.413,77.877 505.035,76.81 501.64,75.806 C486.09,71.205 470.036,67.435 454.221,63.064 L454.038,62.804 L448.313,54.617 C459.688,58.523 471.119,62.17 482.044,66.117 C491.489,69.53 501.037,72.643 510.623,75.638 L511.786,78.956" id="Fill-116" fill="#444BB4"></path>
                <path d="M324.834,364.49 C324.804,364.106 324.769,363.71 324.661,363.367 C323.656,360.161 321.699,359.295 320.083,356.589 C319.361,355.382 320.302,351.612 317.903,351.934 C317.019,352.052 314.878,352.753 312.993,353.031 C310.243,353.435 306.576,351.722 303.852,349.644 C300.19,346.85 296.363,343.779 293.08,340.312 C286.185,333.029 279.108,323.905 273.365,314.987 C283.943,301.635 288.222,280.017 283.968,261.406 C283.522,259.461 282.962,257.483 281.883,256.052 C280.97,254.841 279.756,254.122 278.527,253.618 C265.536,248.292 262.323,264.999 259.313,278.316 C257.434,286.628 255.921,295.224 254.978,303.821 C253.656,315.86 258.151,324.439 264.69,332.44 C271.619,340.918 278.752,349.341 286.902,355.68 C290.863,358.761 294.973,360.622 299.158,362.963 C303.295,365.276 302.295,367.612 305.528,370.881 C307.332,372.705 308.914,375.02 310.947,376.368 C314.594,378.785 318.326,376.2 321.754,374.37 C322.606,373.915 323.185,373.611 323.742,372.733 C324.649,371.305 324.722,369.489 324.841,367.69 C324.912,366.625 324.919,365.547 324.834,364.49" id="Fill-117" fill="#E2B596"></path>
                <path d="M251.47,282.73 C250.517,289.319 249.793,295.836 249.279,302.151 C248.514,311.565 247.892,321.843 251.765,329.767 C253.258,332.821 255.322,335.284 257.371,337.693 C267.081,349.115 277.006,360.211 287.132,370.967 C292.499,365.4 297.231,358.737 301.113,351.28 C302.202,349.188 303.268,346.819 303.099,344.279 C302.849,340.504 300.083,338.077 297.612,336.229 C293.588,333.219 289.563,330.209 285.539,327.199 C284.233,326.222 282.818,325.071 282.373,323.159 C282.083,321.91 282.271,320.563 282.474,319.284 C286.324,295.103 293.04,276.005 301.31,254.11 C304.953,244.458 308.675,234.42 308.974,223.613 C309.612,200.537 288.949,187.932 277.072,205.761 C263.53,226.091 255.475,255.035 251.47,282.73" id="Fill-118" fill="#353A85"></path>
                <path d="M674.422,305.029 C674.46,304.7 674.503,304.361 674.63,304.067 C675.809,301.327 678.063,300.604 679.941,298.3 C680.779,297.272 679.729,294.028 682.481,294.329 C683.497,294.44 685.95,295.064 688.114,295.322 C691.269,295.698 695.495,294.268 698.641,292.513 C702.869,290.154 707.289,287.56 711.087,284.62 C719.065,278.444 727.267,270.691 733.934,263.099 C721.888,251.531 717.146,232.938 722.179,217.014 C722.705,215.35 723.364,213.659 724.616,212.442 C725.674,211.414 727.074,210.809 728.489,210.39 C743.454,205.958 747.013,220.327 750.365,231.785 C752.458,238.936 754.128,246.328 755.144,253.714 C756.566,264.057 751.335,271.371 743.761,278.166 C735.734,285.367 727.474,292.518 718.063,297.871 C713.488,300.473 708.753,302.026 703.927,303.99 C699.156,305.931 700.287,307.946 696.547,310.717 C694.461,312.262 692.625,314.232 690.279,315.367 C686.071,317.403 681.805,315.145 677.882,313.539 C676.905,313.139 676.244,312.872 675.61,312.113 C674.58,310.878 674.512,309.319 674.389,307.774 C674.315,306.86 674.315,305.935 674.422,305.029" id="Fill-119" fill="#E2B596"></path>
                <path d="M747.336,249.485 C745.252,250.048 743.113,250.859 740.582,252.056 C739.104,252.754 722.36,260.186 722.287,259.901 C721.104,255.342 716.726,250.977 714.57,246.644 C712.005,241.483 710.075,236.004 708.858,230.369 C706.852,221.078 702.489,212.036 699.119,203.136 C694.867,191.906 702.666,183.94 714.083,187.65 C723.831,190.817 731.566,199.322 738.648,206.329 C744.371,211.991 750.032,217.87 753.962,224.896 C757.893,231.921 759.967,240.306 758.04,248.123 C753.733,248.326 750.602,248.602 747.336,249.485" id="Fill-120" fill="#292949"></path>
                <path d="M797.382,275.147 L904.467,274.976 C911.596,274.964 917.384,280.926 917.396,288.292 L917.509,364.096 C917.52,371.462 911.749,377.442 904.62,377.454 L797.535,377.625 C790.406,377.636 784.618,371.675 784.606,364.309 L784.493,288.504 C784.482,281.139 790.252,275.158 797.382,275.147" id="Fill-121" fill="#474EBB"></path>
                <path d="M877.659,329.789 L903.179,329.748 C905.102,329.745 906.657,328.133 906.654,326.146 L906.615,299.78 C906.612,297.793 905.052,296.186 903.129,296.189 L877.608,296.23 C875.687,296.233 874.131,297.845 874.134,299.832 L874.173,326.198 C874.176,328.185 875.736,329.792 877.659,329.789" id="Fill-122" fill="#FFFFFF"></path>
                <path d="M877.93,369.67 L903.449,369.629 C905.372,369.626 906.928,368.013 906.925,366.027 L906.886,339.661 C906.883,337.675 905.321,336.067 903.399,336.07 L877.879,336.111 C875.957,336.114 874.4,337.726 874.403,339.713 L874.443,366.079 C874.446,368.065 876.007,369.673 877.93,369.67" id="Fill-123" fill="#FFFFFF"></path>
                <path d="M837.815,329.853 L863.335,329.812 C865.258,329.809 866.813,328.196 866.811,326.21 L866.771,299.844 C866.769,297.857 865.207,296.25 863.285,296.253 L837.765,296.293 C835.843,296.297 834.286,297.909 834.289,299.895 L834.329,326.262 C834.332,328.248 835.893,329.856 837.815,329.853" id="Fill-124" fill="#FFFFFF"></path>
                <path d="M838.085,369.734 L863.605,369.693 C865.528,369.69 867.084,368.077 867.081,366.091 L867.041,339.725 C867.038,337.738 865.478,336.131 863.555,336.134 L838.035,336.175 C836.112,336.177 834.557,337.79 834.56,339.776 L834.6,366.143 C834.603,368.129 836.163,369.737 838.085,369.734" id="Fill-125" fill="#FFFFFF"></path>
                <path d="M797.971,329.917 L823.491,329.876 C825.414,329.873 826.97,328.26 826.967,326.274 L826.928,299.907 C826.925,297.921 825.363,296.313 823.44,296.316 L797.921,296.357 C795.998,296.36 794.442,297.973 794.445,299.959 L794.484,326.326 C794.488,328.312 796.049,329.92 797.971,329.917" id="Fill-126" fill="#FFFFFF"></path>
                <path d="M798.241,369.798 L823.762,369.757 C825.684,369.754 827.24,368.141 827.237,366.155 L827.197,339.788 C827.194,337.802 825.634,336.194 823.711,336.198 L798.191,336.238 C796.269,336.241 794.713,337.854 794.716,339.84 L794.755,366.207 C794.758,368.193 796.319,369.801 798.241,369.798" id="Fill-127" fill="#FFFFFF"></path>
                <path d="M890.245,264.085 L893.968,264.079 C896.002,264.076 897.654,265.777 897.657,267.879 L897.679,282.118 C897.682,284.22 896.035,285.927 894,285.93 L890.277,285.936 C888.243,285.939 886.591,284.238 886.588,282.136 L886.566,267.897 C886.563,265.795 888.21,264.088 890.245,264.085" id="Fill-128" fill="#FFFFFF"></path>
                <path d="M806.871,264.218 L810.594,264.212 C812.628,264.209 814.28,265.91 814.283,268.013 L814.305,282.251 C814.308,284.354 812.661,286.06 810.626,286.063 L806.903,286.07 C804.869,286.073 803.217,284.371 803.214,282.269 L803.192,268.03 C803.189,265.928 804.836,264.221 806.871,264.218" id="Fill-129" fill="#FFFFFF"></path>
                <path d="M924.777,331.224 C925.94,328.497 926.83,325.67 927.71,322.841 C923.396,321.847 919.075,320.901 914.736,320.049 C914.649,320.851 914.565,321.647 914.492,322.43 C914.118,326.423 914.373,330.495 913.587,334.445 C913.184,336.473 912.542,338.649 911.314,340.345 C910.231,341.842 909.23,342.467 908.897,344.51 C908.59,346.398 911.048,347.034 910.076,349.003 C909.019,351.147 905.857,349.595 904.218,351.135 C903.749,351.574 903.479,352.181 903.248,352.78 C902.651,354.323 902.238,356.115 902.998,357.584 C905.308,362.056 911.315,359.861 914.054,357.477 C915.915,355.857 918.383,354.589 919.749,352.476 C922.557,348.135 920.475,342.413 922.026,337.704 C922.761,335.474 923.854,333.383 924.777,331.224" id="Fill-130" fill="#AA6755"></path>
                <path d="M888.481,257.448 C893.509,265.353 903.359,270.948 909.833,278.123 C922.467,292.124 914.368,317.822 912.732,334.927 L923.738,339.272 L939,287.056 L915.831,236.989 C909.106,222.459 897.063,211.063 882.182,205.154 L871.716,200.997 C875.825,202.657 880.648,232.044 881.941,236.535 C883.655,242.491 884.592,250.101 887.434,255.625 C887.753,256.246 888.104,256.854 888.481,257.448" id="Fill-131" fill="#D67086"></path>
                <path d="M800.528,286.373 C800.123,281.043 794.855,276.752 789.513,276.896 C787.814,276.941 786.088,277.386 784.731,278.409 C783.376,279.432 782.443,281.087 782.534,282.783 L783.904,281.533 L783.848,281.656 C782.668,284.403 781.785,287.277 781.22,290.213 C780.951,291.606 780.758,293.07 781.18,294.424 C781.631,295.874 782.728,297.017 783.789,298.103 C784.628,298.961 785.523,299.854 786.682,300.17 C787.84,300.487 789.316,299.969 789.609,298.805 C789.852,297.842 789.249,296.724 789.765,295.875 C790.369,294.879 791.85,295.157 792.986,294.902 C794.483,294.567 795.492,293.191 796.818,292.422 C797.36,292.107 797.96,291.894 798.482,291.547 C800.104,290.471 800.677,288.313 800.528,286.373" id="Fill-132" fill="#AA6755"></path>
                <path d="M785.731,283.102 C787.052,280.739 789.735,278.944 792.395,279.447 C793.233,279.605 794.079,279.979 794.907,279.774 C796.101,279.478 796.709,278.032 796.485,276.824 C796.261,275.615 795.433,274.615 794.586,273.724 C792.758,271.797 790.599,270.031 788.014,269.421 C784.804,268.663 781.336,269.851 778.847,272.013 C776.356,274.175 774.752,277.204 773.743,280.344 C772.33,284.745 770.828,297.532 778.059,297.809 C786.038,298.115 783.285,287.482 785.731,283.102" id="Fill-133" fill="#D67086"></path>
            </g>
        </g>
    </g>
</svg>