<svg xmlns="http://www.w3.org/2000/svg" xmlns:xlink="http://www.w3.org/1999/xlink" viewBox="0 0 729 228"><defs><style>.cls-1{fill:#fff;}.cls-2{fill:#1d2433;}.cls-3{fill:url(#linear-gradient);}.cls-4{fill:url(#linear-gradient-2);}.cls-5{fill:url(#linear-gradient-3);}.cls-6{fill:url(#linear-gradient-4);}.cls-7{fill:url(#linear-gradient-5);}</style><linearGradient id="linear-gradient" x1="3853.35" y1="200.74" x2="3852.43" y2="151.95" gradientTransform="matrix(-1, 0, 0, 1, 4276.57, 0)" gradientUnits="userSpaceOnUse"><stop offset="0" stop-color="#0050e7"/><stop offset="1" stop-color="#f6f"/></linearGradient><linearGradient id="linear-gradient-2" x1="3852.58" y1="208.7" x2="3851.4" y2="134.01" xlink:href="#linear-gradient"/><linearGradient id="linear-gradient-3" x1="3848.86" y1="152.79" x2="3840.63" y2="202.78" xlink:href="#linear-gradient"/><linearGradient id="linear-gradient-4" x1="3843.36" y1="205.87" x2="3842.77" y2="160" xlink:href="#linear-gradient"/><linearGradient id="linear-gradient-5" x1="0" y1="114" x2="228" y2="114" gradientTransform="matrix(1, 0, 0, 1, 0, 0)" xlink:href="#linear-gradient"/></defs><title>Asset 1</title><g id="Layer_2" data-name="Layer 2"><g id="Layer_1-2" data-name="Layer 1"><rect class="cls-1" x="158" y="23" width="571" height="182"/><path class="cls-2" d="M472.77,154.5v8.89h31.68v8.14H472.77v8.89h31.68v9h-41.9V145.55h41.9v8.95Z"/><path class="cls-2" d="M531.94,190a37,37,0,0,1-11.19-1.5,18.71,18.71,0,0,1-7.76-4.32,17,17,0,0,1-4.48-7.14,32.34,32.34,0,0,1,0-19.28,16.78,16.78,0,0,1,4.48-7.08,20.41,20.41,0,0,1,7.76-4.32,39.5,39.5,0,0,1,11.19-1.44,40,40,0,0,1,11.26,1.44,19.73,19.73,0,0,1,7.77,4.39,17.73,17.73,0,0,1,4.47,7,32.34,32.34,0,0,1,0,19.28,17.07,17.07,0,0,1-4.47,7.07,19.49,19.49,0,0,1-7.77,4.39A37.49,37.49,0,0,1,531.94,190Zm0-9.45c5.32,0,9.09-1.07,11.4-3.26s3.36-5.45,3.36-9.89-1.12-7.76-3.36-9.89-6.08-3.13-11.4-3.13-9.09,1.06-11.33,3.13-3.36,5.44-3.36,9.89,1.12,7.82,3.43,9.95S526.69,180.55,531.94,180.55Z"/><path class="cls-2" d="M606.71,161.64a17.16,17.16,0,0,1-2.3,9.14,13.61,13.61,0,0,1-6.3,5.57l7.35,13h-12l-6.36-11.7H570.62v11.7H560.41V145.55h31.13a16.45,16.45,0,0,1,6.15,1.13,12.93,12.93,0,0,1,4.83,3.25A16,16,0,0,1,605.6,155,18.28,18.28,0,0,1,606.71,161.64ZM570.62,155v13.21h18.12c.77,0,1.68-.06,2.59-.12a5.71,5.71,0,0,0,2.51-.69,5.31,5.31,0,0,0,2-2,7.79,7.79,0,0,0,.77-3.76,8.32,8.32,0,0,0-.77-3.88,5.58,5.58,0,0,0-2-1.94,5.78,5.78,0,0,0-2.51-.75c-.91-.07-1.82-.07-2.59-.07Z"/><path class="cls-2" d="M603.43,145.55h12.31l15.18,20,15.24-20h12.32L636,175v14.4H625.88V175Z"/><polygon class="cls-3" points="424.29 157.63 437.64 144.28 456.58 144.28 424.29 176.57 392 144.28 410.94 144.28 424.29 157.63"/><polyline class="cls-4" points="392 189.92 424.29 157.63 456.58 189.92"/><polyline class="cls-5" points="411.07 189.92 433.83 167.16 456.58 189.92"/><polyline class="cls-6" points="424.36 157.63 433.83 167.1 443.3 157.63"/><path class="cls-2" d="M311,45.06q1.68-4.19,6.58-4.18a8.2,8.2,0,0,1,4.79,1.5,5.13,5.13,0,0,1,2.15,4.5,7.29,7.29,0,0,1-.36,2.35l-27.27,66.61c-1.12,2.72-3.31,4.07-6.58,4.07a7.28,7.28,0,0,1-3.77-1,6,6,0,0,1-2.57-3L256.6,49.45a5.49,5.49,0,0,1-.6-2.25,5.42,5.42,0,0,1,2.33-4.6,8.05,8.05,0,0,1,4.85-1.72,6.94,6.94,0,0,1,3.65,1,6.59,6.59,0,0,1,2.57,3.21l20.94,51.4Z"/><path class="cls-2" d="M372.41,41.42a7,7,0,0,1,4.84,1.66,5.64,5.64,0,0,1,1.85,4.44,5.82,5.82,0,0,1-1.85,4.5,6.86,6.86,0,0,1-4.84,1.71H345.13v18h26.2a7.25,7.25,0,0,1,5,1.72,5.61,5.61,0,0,1,1.92,4.39,5.53,5.53,0,0,1-1.92,4.49,7.49,7.49,0,0,1-5,1.61h-26.2v23.13h27.75a7.21,7.21,0,0,1,5,1.66,5.7,5.7,0,0,1,1.85,4.45,5.83,5.83,0,0,1-1.85,4.55,7.21,7.21,0,0,1-5,1.66H338.19a7.32,7.32,0,0,1-4.85-1.66,5.66,5.66,0,0,1-2-4.55V47.52a5.52,5.52,0,0,1,2-4.44,7.27,7.27,0,0,1,4.85-1.66Z"/><path class="cls-2" d="M412.84,41.42a29.65,29.65,0,0,1,11.07,2,28.08,28.08,0,0,1,8.73,5.41,25.54,25.54,0,0,1,5.74,7.71,20.28,20.28,0,0,1,2.1,8.94,20.79,20.79,0,0,1-4.61,13.23q-4.61,5.83-13.34,8.19l14.72,23.56a7.4,7.4,0,0,1,1.07,3.53,5.16,5.16,0,0,1-2.09,4.23,7.4,7.4,0,0,1-4.73,1.66,7.84,7.84,0,0,1-3.46-.75,6.86,6.86,0,0,1-2.76-2.67L408.65,89.82h-7.41V113.7a5.77,5.77,0,0,1-1.86,4.55,8.25,8.25,0,0,1-9.93,0,5.63,5.63,0,0,1-2-4.55V47.52a5.52,5.52,0,0,1,2-4.44,7.27,7.27,0,0,1,4.85-1.66Zm-11.6,36.09h11.6a15,15,0,0,0,9.87-3.7,12.75,12.75,0,0,0,2.93-3.8,9.88,9.88,0,0,0,1.08-4.5,9.65,9.65,0,0,0-1.08-4.39,12.07,12.07,0,0,0-2.93-3.75,15.32,15.32,0,0,0-4.43-2.62,14.57,14.57,0,0,0-5.44-1h-11.6Z"/><path class="cls-2" d="M455,40.88A7.39,7.39,0,0,1,460,42.54,5.7,5.7,0,0,1,461.89,47V113.7a5.8,5.8,0,0,1-1.85,4.55,7.34,7.34,0,0,1-5.09,1.66,7.24,7.24,0,0,1-4.84-1.66,5.61,5.61,0,0,1-2-4.55V47a5.51,5.51,0,0,1,2-4.45A7.29,7.29,0,0,1,455,40.88Z"/><path class="cls-2" d="M514.65,41.42a7,7,0,0,1,4.85,1.66,5.68,5.68,0,0,1,1.85,4.44A5.85,5.85,0,0,1,519.5,52a6.89,6.89,0,0,1-4.85,1.71H487.37v18h26.2a7.27,7.27,0,0,1,5,1.72,5.63,5.63,0,0,1,1.91,4.39,5.56,5.56,0,0,1-1.91,4.49,7.52,7.52,0,0,1-5,1.61h-26.2V113.7a5.8,5.8,0,0,1-1.85,4.55,7.34,7.34,0,0,1-5.09,1.66,7.24,7.24,0,0,1-4.84-1.66,5.61,5.61,0,0,1-2-4.55V47.52a5.74,5.74,0,0,1,1.8-4.44,7.29,7.29,0,0,1,5.14-1.66Z"/><path class="cls-2" d="M535.35,40.88a7.38,7.38,0,0,1,5.08,1.66A5.67,5.67,0,0,1,542.29,47V113.7a5.77,5.77,0,0,1-1.86,4.55,8.25,8.25,0,0,1-9.93,0,5.63,5.63,0,0,1-2-4.55V47a5.54,5.54,0,0,1,2-4.45A7.32,7.32,0,0,1,535.35,40.88Z"/><path class="cls-2" d="M595.05,41.42a7,7,0,0,1,4.84,1.66,5.64,5.64,0,0,1,1.85,4.44,5.82,5.82,0,0,1-1.85,4.5,6.86,6.86,0,0,1-4.84,1.71H567.77v18H594a7.25,7.25,0,0,1,5,1.72,5.61,5.61,0,0,1,1.92,4.39A5.53,5.53,0,0,1,599,82.32a7.49,7.49,0,0,1-5,1.61h-26.2v23.13h27.75a7.21,7.21,0,0,1,5,1.66,5.7,5.7,0,0,1,1.85,4.45,5.83,5.83,0,0,1-1.85,4.55,7.21,7.21,0,0,1-5,1.66H560.83a7.32,7.32,0,0,1-4.85-1.66,5.66,5.66,0,0,1-2-4.55V47.52a5.52,5.52,0,0,1,2-4.44,7.27,7.27,0,0,1,4.85-1.66Z"/><path class="cls-2" d="M631.29,41.42a54.19,54.19,0,0,1,17.83,2.89,46.54,46.54,0,0,1,14.6,8,37.92,37.92,0,0,1,9.81,12.31,36.41,36.41,0,0,1,0,31.49,37.81,37.81,0,0,1-9.81,12.31,46.56,46.56,0,0,1-14.6,8,54.46,54.46,0,0,1-17.83,2.89H616.94a7.32,7.32,0,0,1-4.85-1.66,5.66,5.66,0,0,1-2-4.55V47.52a5.52,5.52,0,0,1,2-4.44,7.27,7.27,0,0,1,4.85-1.66Zm-7.41,65.64h7.41a38.66,38.66,0,0,0,12.45-2A32.88,32.88,0,0,0,654,99.57a26,26,0,0,0,6.88-8.41,24.13,24.13,0,0,0,0-21.47A25.75,25.75,0,0,0,654,61.23a32.9,32.9,0,0,0-10.22-5.52,38.66,38.66,0,0,0-12.45-2h-7.41Z"/><path d="M332.64,144.72a14.72,14.72,0,0,1,5,.79,12.7,12.7,0,0,1,3.84,2.12,9.55,9.55,0,0,1,2.5,3.17,8.86,8.86,0,0,1,.88,3.85q0,6-5,8.34a10.13,10.13,0,0,1,4.63,3.66,9.79,9.79,0,0,1,1.83,5.84,11.19,11.19,0,0,1-3.62,8.21,14.08,14.08,0,0,1-4.42,2.7,16.37,16.37,0,0,1-6,1h-9.45a3.74,3.74,0,0,1-2.47-.85,2.87,2.87,0,0,1-1-2.32V147.83a2.82,2.82,0,0,1,1-2.27,3.73,3.73,0,0,1,2.47-.84Zm-6.34,15.11h6.34a5.33,5.33,0,0,0,3.78-1.26,4.2,4.2,0,0,0,1.34-3.21,4,4,0,0,0-1.4-3.14,5.46,5.46,0,0,0-3.72-1.23H326.3Zm0,18.33h5.91a7.27,7.27,0,0,0,2.8-.52,7.45,7.45,0,0,0,2.23-1.36,6.34,6.34,0,0,0,1.49-1.94,4.84,4.84,0,0,0,.55-2.23,5.36,5.36,0,0,0-.49-2.24,5.86,5.86,0,0,0-1.4-1.94,6.82,6.82,0,0,0-2.22-1.34,8.58,8.58,0,0,0-3-.49H326.3Z"/><path d="M367.69,156.12a3.08,3.08,0,0,1,1.31-1.61,4,4,0,0,1,4.48.35,2.87,2.87,0,0,1,1,2.3,3.42,3.42,0,0,1-.24,1.3l-15.6,37.76a3.39,3.39,0,0,1-1.38,1.66,3.69,3.69,0,0,1-1.92.52,3.81,3.81,0,0,1-2.43-.87,2.72,2.72,0,0,1-1.1-2.24,3.07,3.07,0,0,1,.24-1.14l5.24-12.28-9.5-23.35c-.09-.25-.16-.48-.22-.68a2.38,2.38,0,0,1-.09-.68,2.85,2.85,0,0,1,1.07-2.3,3.87,3.87,0,0,1,2.53-.87,3.8,3.8,0,0,1,2,.52,3.12,3.12,0,0,1,1.31,1.61l6.7,17.08Z"/><circle class="cls-7" cx="114" cy="114" r="114"/><path class="cls-1" d="M82.78,172.17a11.7,11.7,0,0,1-8.3-3.44l-37-37A11.74,11.74,0,0,1,54,115.09l28.74,28.73L156,70.64a11.74,11.74,0,0,1,16.6,16.61L91.08,168.73A11.72,11.72,0,0,1,82.78,172.17Z"/></g></g></svg>