<svg xmlns="http://www.w3.org/2000/svg" xmlns:xlink="http://www.w3.org/1999/xlink" viewBox="0 0 490.05 84.08"><defs><style>.cls-1{fill:#253044;}.cls-2{fill:url(#linear-gradient);}.cls-3{fill:url(#linear-gradient-2);}.cls-4{fill:url(#linear-gradient-3);}.cls-5{fill:url(#linear-gradient-4);}</style><linearGradient id="linear-gradient" x1="1495.2" y1="103.83" x2="1493.5" y2="14.1" gradientTransform="matrix(-1, 0, 0, 1, 1552.62, 0)" gradientUnits="userSpaceOnUse"><stop offset="0" stop-color="#0050e7"/><stop offset="1" stop-color="#f6f"/></linearGradient><linearGradient id="linear-gradient-2" x1="1493.78" y1="118.48" x2="1491.62" y2="-18.88" xlink:href="#linear-gradient"/><linearGradient id="linear-gradient-3" x1="1486.95" y1="15.64" x2="1471.8" y2="107.57" xlink:href="#linear-gradient"/><linearGradient id="linear-gradient-4" x1="1476.84" y1="113.26" x2="1475.76" y2="28.9" xlink:href="#linear-gradient"/></defs><title>logo-light</title><g id="Layer_2" data-name="Layer 2"><g id="Layer_1-2" data-name="Layer 1"><path class="cls-1" d="M148.53,18.79V35.14H206.8v15H148.53V66.46H206.8V82.93H129.75V2.33H206.8V18.79Z"/><path class="cls-1" d="M257.35,84.08a68.08,68.08,0,0,1-20.58-2.76,34.55,34.55,0,0,1-14.28-7.95,31.2,31.2,0,0,1-8.23-13.13,53.71,53.71,0,0,1-2.7-17.73,53.71,53.71,0,0,1,2.7-17.73,30.85,30.85,0,0,1,8.23-13,37.47,37.47,0,0,1,14.28-7.95,72.37,72.37,0,0,1,20.58-2.64,73.28,73.28,0,0,1,20.71,2.64,36.12,36.12,0,0,1,14.28,8.07,32.41,32.41,0,0,1,8.23,12.89,53.71,53.71,0,0,1,2.7,17.73,53.71,53.71,0,0,1-2.7,17.73,31.41,31.41,0,0,1-8.23,13,36.11,36.11,0,0,1-14.28,8.06A68.93,68.93,0,0,1,257.35,84.08Zm0-17.39c9.78,0,16.72-2,21-6s6.17-10,6.17-18.2-2.06-14.27-6.17-18.19-11.19-5.76-21-5.76-16.72,2-20.84,5.76-6.17,10-6.17,18.19,2.06,14.4,6.3,18.31S247.7,66.69,257.35,66.69Z"/><path class="cls-1" d="M394.86,31.92c0,6.56-1.42,12.21-4.25,16.81A25,25,0,0,1,379,59l13.5,24H370.42L358.71,61.4H328.48V82.93H309.7V2.33H367A30.18,30.18,0,0,1,378.26,4.4a23.7,23.7,0,0,1,8.88,6,29.25,29.25,0,0,1,5.66,9.32A33.14,33.14,0,0,1,394.86,31.92ZM328.48,19.71V44H361.8c1.42,0,3.09-.12,4.76-.23a10.6,10.6,0,0,0,4.63-1.27,9.65,9.65,0,0,0,3.6-3.68,14.31,14.31,0,0,0,1.42-6.91,15.33,15.33,0,0,0-1.42-7.14,10.31,10.31,0,0,0-3.6-3.57,10.72,10.72,0,0,0-4.63-1.38c-1.67-.12-3.34-.12-4.76-.12Z"/><path class="cls-1" d="M388.81,2.33h22.64l27.92,36.73,28-36.73h22.64L448.76,56.45V82.93H430.1V56.45Z"/><polygon class="cls-2" points="59.38 24.55 83.93 0 118.76 0 59.38 59.38 0 0 34.83 0 59.38 24.55"/><polyline class="cls-3" points="0 83.93 59.38 24.55 118.76 83.93"/><polyline class="cls-4" points="35.08 83.93 76.92 42.09 118.76 83.93"/><polyline class="cls-5" points="59.5 24.55 76.92 41.96 94.33 24.55"/></g></g></svg>