<svg xmlns="http://www.w3.org/2000/svg" xmlns:xlink="http://www.w3.org/1999/xlink" viewBox="0 0 433.64 91.11"><defs><style>.cls-1{font-size:75.34px;fill:#f2f2f2;font-family:RimouskiSb-Regular, Rimouski;}.cls-2{letter-spacing:-0.05em;}.cls-3{letter-spacing:-0.02em;}.cls-4{letter-spacing:0em;}.cls-5{letter-spacing:-0.04em;}.cls-6{letter-spacing:0em;}.cls-7{fill:url(#linear-gradient);}.cls-8{fill:url(#linear-gradient-2);}.cls-9{fill:url(#linear-gradient-3);}.cls-10{fill:url(#linear-gradient-4);}.cls-11{fill:url(#linear-gradient-5);}.cls-12{fill:url(#linear-gradient-6);}.cls-13{fill:url(#linear-gradient-7);}</style><linearGradient id="linear-gradient" x1="-4.54" y1="3.69" x2="9.55" y2="67.29" gradientUnits="userSpaceOnUse"><stop offset="0" stop-color="#0050e7"/><stop offset="1" stop-color="#cb5a9f"/></linearGradient><linearGradient id="linear-gradient-2" x1="19.34" y1="-1.6" x2="33.44" y2="62" xlink:href="#linear-gradient"/><linearGradient id="linear-gradient-3" x1="3.63" y1="1.88" x2="17.72" y2="65.49" xlink:href="#linear-gradient"/><linearGradient id="linear-gradient-4" x1="36.85" y1="-5.48" x2="50.94" y2="58.12" xlink:href="#linear-gradient"/><linearGradient id="linear-gradient-5" x1="19.18" y1="-1.56" x2="33.27" y2="62.04" xlink:href="#linear-gradient"/><linearGradient id="linear-gradient-6" x1="43.96" y1="-7.05" x2="58.05" y2="56.55" xlink:href="#linear-gradient"/><linearGradient id="linear-gradient-7" x1="-3.63" y1="3.49" x2="10.46" y2="67.09" gradientTransform="translate(52.39 34.82) rotate(81.92)" xlink:href="#linear-gradient"/></defs><title>logo</title><g id="Layer_2" data-name="Layer 2"><g id="Layer_1-2" data-name="Layer 1"><text class="cls-1" transform="translate(85.12 71.82)"><tspan class="cls-2">L</tspan><tspan x="30.59" y="0">a</tspan><tspan class="cls-3" x="80.09" y="0">b</tspan><tspan class="cls-4" x="127.85" y="0">S</tspan><tspan class="cls-5" x="163.04" y="0">t</tspan><tspan class="cls-6" x="182.62" y="0">eam</tspan></text><ellipse class="cls-7" cx="8.84" cy="64.09" rx="8.84" ry="7.73"/><ellipse class="cls-8" cx="38.12" cy="83.15" rx="8.84" ry="7.73"/><ellipse class="cls-9" cx="8.84" cy="25.41" rx="8.84" ry="7.73"/><ellipse class="cls-10" cx="39.78" cy="7.73" rx="8.84" ry="7.73"/><polygon class="cls-11" points="37.3 86.34 5.63 65.73 50.98 46.88 5.47 25.49 41.56 6.4 42.97 9.06 12.21 25.34 58.41 47.05 12.05 66.32 38.94 83.82 37.3 86.34"/><ellipse class="cls-12" cx="55.8" cy="46.41" rx="8.84" ry="7.73"/><rect class="cls-13" x="-13.1" y="46.08" width="38.48" height="3.01" transform="translate(-41.84 46.98) rotate(-81.92)"/></g></g></svg>