<svg xmlns="http://www.w3.org/2000/svg" viewBox="0 0 429.87 90.88"><defs><style>.cls-1{fill:#f2f2f2;}.cls-2{fill:#fff;}</style></defs><title>logo-white</title><g id="Layer_2" data-name="Layer 2"><g id="Layer_1-2" data-name="Layer 1"><path class="cls-1" d="M97.4,63.16h17.48a4,4,0,0,1,4.29,4.29,4.3,4.3,0,0,1-1.17,3.2,4.22,4.22,0,0,1-3.12,1.17H93.1a4.28,4.28,0,0,1-3.23-1.17,4.36,4.36,0,0,1-1.14-3.2V20.89A4.08,4.08,0,0,1,90,17.77a4.76,4.76,0,0,1,6.25,0,4.22,4.22,0,0,1,1.17,3.12Z"/><path class="cls-1" d="M161.59,67.83a4.42,4.42,0,0,1-7.42,3.2,4.17,4.17,0,0,1-1.24-3.2V67.6a20.84,20.84,0,0,1-2.45,2.08,17.78,17.78,0,0,1-3.09,1.77,20.9,20.9,0,0,1-3.58,1.2,16.19,16.19,0,0,1-3.77.45,22.37,22.37,0,0,1-8.89-1.73,21.22,21.22,0,0,1-11.6-11.71,23.26,23.26,0,0,1,0-17.26,21.65,21.65,0,0,1,4.63-7,22.56,22.56,0,0,1,7-4.79A21.84,21.84,0,0,1,140,28.8a18.22,18.22,0,0,1,7.46,1.44,15.8,15.8,0,0,1,5.43,3.84A4.08,4.08,0,0,1,154.17,31a4.76,4.76,0,0,1,6.25,0,4.22,4.22,0,0,1,1.17,3.13ZM140,37.47a13.22,13.22,0,0,0-9.57,4,13.89,13.89,0,0,0-2.86,4.34,13.36,13.36,0,0,0-1,5.27,13.1,13.1,0,0,0,1,5.23,13.41,13.41,0,0,0,2.86,4.26,13.66,13.66,0,0,0,4.26,2.87,13.31,13.31,0,0,0,5.31,1,12.48,12.48,0,0,0,9.16-3.92,13.27,13.27,0,0,0,2.67-4.26,14,14,0,0,0,1-5.23,14.26,14.26,0,0,0-1-5.27,13.76,13.76,0,0,0-2.67-4.34,12.29,12.29,0,0,0-4.07-2.9A12.43,12.43,0,0,0,140,37.47Z"/><path class="cls-1" d="M177.56,34.23a14.32,14.32,0,0,1,5.27-4,18.11,18.11,0,0,1,7.54-1.47,21.75,21.75,0,0,1,8.32,1.66,22.55,22.55,0,0,1,12.06,11.68,22.2,22.2,0,0,1,0,17.7,22.17,22.17,0,0,1-4.94,7,22.88,22.88,0,0,1-7.12,4.6,21.74,21.74,0,0,1-8.32,1.65,15.8,15.8,0,0,1-4-.49,19.76,19.76,0,0,1-3.61-1.28,17.88,17.88,0,0,1-3.13-1.84,14.82,14.82,0,0,1-2.41-2.19,7.41,7.41,0,0,1-1.17,3.54c-.63.91-1.82,1.36-3.58,1.36a3.54,3.54,0,0,1-2.63-1.06,3.73,3.73,0,0,1-1.06-2.78V17.43a4.12,4.12,0,0,1,1.24-3.13,4.39,4.39,0,0,1,3.13-1.17,4.31,4.31,0,0,1,3.2,1.17,4.22,4.22,0,0,1,1.17,3.13Zm12.81,3.24a12.18,12.18,0,0,0-5.05,1.05,12.82,12.82,0,0,0-4.07,2.9,13.51,13.51,0,0,0-2.71,4.34,14.26,14.26,0,0,0-1,5.27,14,14,0,0,0,1,5.23,12.94,12.94,0,0,0,6.78,7.13,12.18,12.18,0,0,0,5.05,1,13.36,13.36,0,0,0,12.43-8.18,13.1,13.1,0,0,0,1-5.23,13.36,13.36,0,0,0-1-5.27,13.89,13.89,0,0,0-2.86-4.34,13.26,13.26,0,0,0-4.3-2.9A13.4,13.4,0,0,0,190.37,37.47Z"/><path class="cls-1" d="M231.65,15.77a15.43,15.43,0,0,1,5.88,1.28,16.16,16.16,0,0,1,5.05,3.17A5.2,5.2,0,0,1,244,22.06a4.94,4.94,0,0,1,.34,1.85,4.64,4.64,0,0,1-1.05,3.16,3.61,3.61,0,0,1-2.87,1.21,4.45,4.45,0,0,1-2-.42,7,7,0,0,1-1.66-1.17,8.33,8.33,0,0,0-2.63-1.77,8.61,8.61,0,0,0-3-.49,5.85,5.85,0,0,0-4.1,1.74A6.25,6.25,0,0,0,225.1,31a5.07,5.07,0,0,0,1.21,3.58,13,13,0,0,0,3.76,2.6,44.86,44.86,0,0,0,5.46,2.26,17.5,17.5,0,0,1,4.86,2.41A15.06,15.06,0,0,1,245,47.49a16.71,16.71,0,0,1,1.62,7.31,18.73,18.73,0,0,1-1.17,6.55A16,16,0,0,1,242,66.93a16.92,16.92,0,0,1-5.65,3.84,19.35,19.35,0,0,1-7.64,1.43,15.46,15.46,0,0,1-7.05-1.58,19.93,19.93,0,0,1-5.08-3.54,5.78,5.78,0,0,1-1.25-1.81,4.79,4.79,0,0,1-.41-1.81,3.91,3.91,0,0,1,4.22-4.22,4.09,4.09,0,0,1,1.58.34,5.4,5.4,0,0,1,1.66,1.17,9.13,9.13,0,0,0,3.16,2.14,11.27,11.27,0,0,0,4.07.65,7.87,7.87,0,0,0,6.18-2.45A9.12,9.12,0,0,0,238,54.8a7.65,7.65,0,0,0-1-4,8.42,8.42,0,0,0-3.54-2.9,41.52,41.52,0,0,0-5-2.14,33.52,33.52,0,0,1-5.58-2.6,13.4,13.4,0,0,1-4.52-4.71A14.06,14.06,0,0,1,216.44,31a15.78,15.78,0,0,1,1.13-6,14.26,14.26,0,0,1,3.16-4.82,14.83,14.83,0,0,1,4.82-3.2A15.6,15.6,0,0,1,231.65,15.77Z"/><path class="cls-1" d="M260.81,30.16h2.71a4.22,4.22,0,0,1,3.13,1.17,4.76,4.76,0,0,1,0,6.25,4.08,4.08,0,0,1-3.13,1.24h-2.71v20a6,6,0,0,0,.41,2.42,3.52,3.52,0,0,0,1.17,1.43,5,5,0,0,0,1.66.75,11.51,11.51,0,0,0,2,.3,3.65,3.65,0,0,1,2.67,1.32,4.83,4.83,0,0,1,.95,3.13,3.64,3.64,0,0,1-1.28,2.9,5.73,5.73,0,0,1-3.77,1.09,15.48,15.48,0,0,1-4.9-.75,10.49,10.49,0,0,1-4-2.38,10.92,10.92,0,0,1-2.64-4.14,17.08,17.08,0,0,1-.94-6V38.82a3.85,3.85,0,0,1-2.68-1.43,4.47,4.47,0,0,1-.94-2.86,4.58,4.58,0,0,1,.94-3,3.7,3.7,0,0,1,2.68-1.31V17.5a4.18,4.18,0,0,1,1.24-3.2,4.3,4.3,0,0,1,7.42,3.2Z"/><path class="cls-1" d="M292.08,28.8a21.36,21.36,0,0,1,8.55,1.74,23.39,23.39,0,0,1,7,4.63A22.06,22.06,0,0,1,312.46,42a19.48,19.48,0,0,1,1.77,8.18,4.5,4.5,0,0,1-1.13,3.31,4.31,4.31,0,0,1-3.17,1.13H279.34a10.31,10.31,0,0,0,1.59,3.92,12.4,12.4,0,0,0,3,3.12,15.1,15.1,0,0,0,3.88,2.08,12.77,12.77,0,0,0,4.3.75,13.2,13.2,0,0,0,5.12-1,12.61,12.61,0,0,0,4.14-2.79A6.9,6.9,0,0,1,303,59.58a4.23,4.23,0,0,1,1.73-.41,3.74,3.74,0,0,1,2.9,1.28,4.32,4.32,0,0,1,1.17,3,6.56,6.56,0,0,1-.22,1.73,3.36,3.36,0,0,1-.91,1.51,18.36,18.36,0,0,1-6.93,4.82,23.19,23.19,0,0,1-8.66,1.58,21.53,21.53,0,0,1-8.63-1.73,22.31,22.31,0,0,1-7-4.71,21.8,21.8,0,0,1-4.75-7,22.39,22.39,0,0,1,0-17.26,22.31,22.31,0,0,1,4.75-7,22.87,22.87,0,0,1,7-4.79A21.22,21.22,0,0,1,292.08,28.8Zm0,8.67a12.77,12.77,0,0,0-4.3.75,13.19,13.19,0,0,0-3.8,2.11,13.68,13.68,0,0,0-2.9,3.17,11.09,11.09,0,0,0-1.66,3.91h25.31a10.25,10.25,0,0,0-1.58-3.91,13.21,13.21,0,0,0-2.94-3.17,13.54,13.54,0,0,0-3.84-2.11A12.75,12.75,0,0,0,292.08,37.47Z"/><path class="cls-1" d="M362.29,67.83a4.42,4.42,0,0,1-7.42,3.2,4.17,4.17,0,0,1-1.24-3.2V67.6a20.06,20.06,0,0,1-2.45,2.08,17.78,17.78,0,0,1-3.09,1.77,20.62,20.62,0,0,1-3.58,1.2,16.1,16.1,0,0,1-3.76.45,22.42,22.42,0,0,1-8.9-1.73,21.31,21.31,0,0,1-11.6-11.71,23.39,23.39,0,0,1,0-17.26,21.68,21.68,0,0,1,4.64-7,22.4,22.4,0,0,1,7-4.79,21.85,21.85,0,0,1,8.82-1.77,18.17,18.17,0,0,1,7.45,1.44,15.8,15.8,0,0,1,5.43,3.84A4.08,4.08,0,0,1,354.87,31a4.76,4.76,0,0,1,6.25,0,4.22,4.22,0,0,1,1.17,3.13ZM340.75,37.47a13.4,13.4,0,0,0-5.32,1.05,13.26,13.26,0,0,0-4.25,2.9,13.91,13.91,0,0,0-2.87,4.34A13.36,13.36,0,0,0,327.26,51a13.1,13.1,0,0,0,1.05,5.23,13.36,13.36,0,0,0,12.44,8.18,12.48,12.48,0,0,0,9.15-3.92,13.27,13.27,0,0,0,2.67-4.26,13.78,13.78,0,0,0,1-5.23,14.06,14.06,0,0,0-1-5.27,13.76,13.76,0,0,0-2.67-4.34,12.29,12.29,0,0,0-4.07-2.9A12.42,12.42,0,0,0,340.75,37.47Z"/><path class="cls-1" d="M378.19,67.91A4.19,4.19,0,0,1,377,71.07a4.88,4.88,0,0,1-6.25,0,4.05,4.05,0,0,1-1.25-3.16V33.55a3.82,3.82,0,0,1,1-2.75,3.51,3.51,0,0,1,2.64-1q3.69,0,4.3,3.47a9.88,9.88,0,0,1,4.33-3.39,14.05,14.05,0,0,1,5.31-1.06,18.87,18.87,0,0,1,3.69.38,17,17,0,0,1,3.58,1.13,13,13,0,0,1,3.16,2,11.18,11.18,0,0,1,2.45,2.9,12.55,12.55,0,0,1,5.8-4.9A18.8,18.8,0,0,1,413,28.8a15.74,15.74,0,0,1,6.29,1.32,17.52,17.52,0,0,1,9.15,9.12,16.94,16.94,0,0,1,1.43,7v21.7a4.19,4.19,0,0,1-1.17,3.16,4.83,4.83,0,0,1-6.21,0,4.1,4.1,0,0,1-1.21-3.16V46.21a8.6,8.6,0,0,0-.68-3.47A9.21,9.21,0,0,0,418.76,40a8.61,8.61,0,0,0-2.68-1.88,7.45,7.45,0,0,0-3.08-.68,8.15,8.15,0,0,0-3.24.68A9.83,9.83,0,0,0,406.89,40a10.13,10.13,0,0,0-2.07,2.79,7.63,7.63,0,0,0-.79,3.47v21.7a4.19,4.19,0,0,1-1.17,3.16,4.42,4.42,0,0,1-3.2,1.13,4.24,4.24,0,0,1-3-1.13,4.1,4.1,0,0,1-1.21-3.16V46.21a8.44,8.44,0,0,0-.71-3.47A10,10,0,0,0,392.84,40a8.69,8.69,0,0,0-2.67-1.88,7.53,7.53,0,0,0-3.09-.68,8.26,8.26,0,0,0-3.2.68A9.21,9.21,0,0,0,381,40a10.41,10.41,0,0,0-2,2.79,7.63,7.63,0,0,0-.79,3.47Z"/><ellipse class="cls-2" cx="8.84" cy="64.09" rx="8.84" ry="7.73"/><ellipse class="cls-2" cx="38.12" cy="83.15" rx="8.84" ry="7.73"/><ellipse class="cls-2" cx="8.84" cy="25.41" rx="8.84" ry="7.73"/><ellipse class="cls-2" cx="39.78" cy="7.73" rx="8.84" ry="7.73"/><polygon class="cls-2" points="37.3 86.34 5.63 65.73 50.98 46.88 5.47 25.49 41.56 6.4 42.97 9.06 12.21 25.34 58.41 47.05 12.05 66.32 38.94 83.82 37.3 86.34"/><ellipse class="cls-2" cx="55.8" cy="46.41" rx="8.84" ry="7.73"/><rect class="cls-2" x="-13.1" y="46.08" width="38.48" height="3.01" transform="translate(-41.84 46.98) rotate(-81.92)"/></g></g></svg>